<svg xmlns="http://www.w3.org/2000/svg" xmlns:xlink="http://www.w3.org/1999/xlink" viewBox="0 0 534 64" fill-rule="evenodd" stroke-linejoin="round" stroke-miterlimit="2" xmlns:v="https://vecta.io/nano"><g fill="#fff" fill-rule="nonzero"><path d="M11.485 47.973c-1.564 0-3.076-.261-4.431-.782S4.5 45.992 3.457 45.053 1.58 43.073.955 41.821C.381 40.57.017 39.215.017 37.755c-.052-1.877.261-3.597.886-5.056.626-1.512 1.46-2.815 2.502-4.014 1.043-1.147 2.189-2.085 3.545-2.919 1.303-.782 2.659-1.407 4.066-1.929-.782-.417-1.46-.938-2.137-1.512a10.39 10.39 0 0 1-1.772-1.929 11.55 11.55 0 0 1-1.199-2.242c-.313-.782-.469-1.564-.469-2.346-.052-2.346.417-4.483 1.46-6.464 1.043-1.929 2.346-3.545 4.014-4.952 1.616-1.355 3.44-2.45 5.473-3.18C18.366.484 20.347.119 22.275.119c1.303 0 2.398.209 3.336.626s1.668.938 2.242 1.564a7.1 7.1 0 0 1 1.303 2.033c.261.73.417 1.407.469 2.033.052 1.095-.104 2.242-.417 3.388s-.73 2.189-1.251 3.128c-.469.938-1.043 1.72-1.616 2.294-.626.626-1.251.886-1.824.886-.417 0-.886-.052-1.355-.209a11.09 11.09 0 0 1-1.407-.469c-.573-.261-1.095-.626-1.668-1.095.886-.313 1.668-.834 2.346-1.46s1.251-1.303 1.72-2.085.782-1.616 1.043-2.45c.209-.834.313-1.616.313-2.346-.052-1.095-.313-1.929-.782-2.502-.469-.626-1.199-.886-2.294-.886-1.407 0-2.815.313-4.275 1.043a11.64 11.64 0 0 0-3.753 2.867c-1.147 1.251-1.981 2.711-2.606 4.431s-.834 3.597-.626 5.578c.156 1.512.626 2.815 1.355 3.858.782 1.095 1.512 1.877 2.189 2.45l1.512-.156 1.355-.104c.573 0 1.147.104 1.72.313s.834.521.834.886c0 .261-.052.573-.156.886-.104.365-.313.678-.573.99s-.626.573-.99.782a3.22 3.22 0 0 1-1.303.261c-.417 0-.886-.104-1.46-.261a10.75 10.75 0 0 1-1.772-.782c-1.251.261-2.45.73-3.493 1.46a10.87 10.87 0 0 0-2.659 2.45 11.41 11.41 0 0 0-1.72 3.128c-.417 1.095-.573 2.189-.573 3.232.052.99.209 1.981.469 2.971.261 1.043.678 1.929 1.251 2.711s1.355 1.407 2.294 1.877c.938.521 2.033.73 3.388.73a6.53 6.53 0 0 0 2.815-.626c.886-.417 1.72-.938 2.502-1.616a13.81 13.81 0 0 0 2.137-2.137c.678-.782 1.199-1.512 1.72-2.294l1.199-2.033.678-1.303c.104-.209.209-.365.417-.469s.365-.104.573-.052c.156.052.313.156.417.365s.104.521 0 .938c-.261 1.199-.782 2.554-1.512 4.066-.782 1.512-1.72 2.919-2.867 4.275-1.199 1.303-2.554 2.45-4.118 3.336a10.75 10.75 0 0 1-5.317 1.355zm39.64-16.212c-1.46 1.824-2.711 3.232-3.805 4.275-1.095.99-2.085 1.772-2.919 2.294s-1.616.834-2.242.99l-1.72.209c-.678 0-1.199-.156-1.668-.469a4.6 4.6 0 0 1-1.095-1.147c-.313-.417-.521-.886-.73-1.355l-.417-1.251-.417-1.251-.469-1.564-2.137 2.294-2.189 2.294-2.502 2.606c-.313.104-.573.104-.834 0l-.573-.156c-.209-.104-.365-.261-.521-.365-.104-.104-.209-.261-.313-.365-.052-.104-.156-.261-.209-.365-.104-.156-.104-.313-.104-.521l2.919-3.336 2.659-2.971 2.502-2.919-1.251-3.649-.834-2.398-.886-2.45c-.261-.626-.678-1.095-1.303-1.355.417-.365.834-.678 1.199-.886l1.043-.469c.417-.156.73-.209.99-.209.782 0 1.46.678 2.085 2.033.573 1.407 1.147 3.284 1.772 5.682 0 .104.052.209.104.365l2.085-2.398 1.72-1.981 1.199-1.355c.313-.365.469-.573.573-.626.678-.782 1.251-1.199 1.824-1.303a1.81 1.81 0 0 1 1.46.313c.209.156.417.313.678.417.417.261.938.521 1.564.782l-1.929 1.877-1.929 1.981-2.137 2.242-1.824 1.877-2.189 2.45a26.17 26.17 0 0 0 .73 2.398c.261.73.573 1.407.834 1.981.313.573.626 1.043.886 1.355.313.365.678.521.99.521.521 0 1.147-.156 1.824-.417.678-.313 1.407-.678 2.137-1.199.782-.521 1.512-1.095 2.294-1.772l2.242-2.137c.261-.261.521-.417.782-.469s.469 0 .573.156c.052.104.104.365.052.678-.052.261-.261.626-.573 1.043z"/><path d="M68.453 25.609c.156-.209.313-.313.573-.365.209-.052.365-.052.521.052.104.104.209.261.209.521.052.209-.052.573-.261.938-.678 1.303-1.564 2.711-2.659 4.17l-3.493 4.222c-1.251 1.303-2.45 2.398-3.597 3.232s-2.085 1.251-2.867 1.251c-1.147 0-2.085-.209-2.815-.626-.73-.469-1.355-.99-1.772-1.616-.417-.678-.73-1.355-.886-2.137s-.209-1.46-.156-2.137l.365-2.919.834-4.848 1.147-5.995 1.355-6.099-1.772.209a16.75 16.75 0 0 1-1.564.052c-1.095 0-2.085-.104-3.076-.365s-1.668-.469-2.137-.73c-.313-.156-.417-.313-.365-.573 0-.261.104-.521.313-.782.156-.261.365-.469.626-.678.261-.156.469-.261.678-.261l2.085.156 2.45.052 1.824-.156c.626-.052 1.199-.156 1.772-.261l1.303-4.222c.417-1.251.834-2.085 1.147-2.554.104-.156.313-.313.678-.417s.73-.209 1.147-.261a4.61 4.61 0 0 1 1.199 0c.365.052.626.156.782.365.209.313.261.99.209 2.085 0 1.147-.209 2.554-.573 4.275 1.46 0 2.711.104 3.805.261l2.815.521c.782.156 1.407.365 1.929.521l1.043.417c.261.052.365.209.365.469.052.313 0 .573-.156.886-.104.261-.313.521-.573.73s-.573.261-.886.209l-1.147-.209a9.71 9.71 0 0 0-1.564-.261l-2.085-.209-2.867-.104-1.46.052c-.156.521-.261 1.095-.365 1.616l-.521 1.616-1.512 4.431-1.824 4.796-2.398 5.786c-.209 1.46-.209 2.554.052 3.336.261.73.573 1.303.938 1.616.469.365.99.573 1.668.626.469.052 1.095-.104 1.824-.521s1.512-.99 2.294-1.72l2.346-2.346 2.242-2.502 1.772-2.189 1.043-1.407z"/><use xlink:href="#B"/><use xlink:href="#C"/><use xlink:href="#D"/><use xlink:href="#B" x="68.673"/><use xlink:href="#D" x="44.595"/><path d="M201.218 14.454l-.626 2.606-.782 3.91-.938 4.587-.886 4.796-.678 4.379-.365 3.493v3.128l.209 2.763c.052.938.209 1.824.469 2.554-.573.261-1.095.469-1.512.573l-1.095.313-.834.104c-.313 0-.626-.052-.99-.104s-.73-.209-.99-.521c-.313-.313-.573-.782-.782-1.407-.209-.678-.261-1.616-.209-2.815.052-.834.156-1.824.365-3.023l.782-3.962 1.043-4.483 1.147-4.535 1.043-4.222.886-3.388.99-4.275 2.919-12.511c.209-.209.469-.365.73-.521l.73-.365c.261-.156.469-.261.73-.313 1.095-.417 1.824-.469 2.294-.156s.73.938.782 1.824l.261 2.659.313 3.858.261 4.431.104 4.17.052 3.023s.052 2.398.156 3.649l.261 3.962s.209 2.606.365 3.858l.417 3.336.469 2.502c.052.261.156.521.209.782a3.62 3.62 0 0 1 .261.678l.678-2.867.834-3.597.834-3.91.678-3.805c.209-.938.365-2.189.573-3.649l.73-4.848-1.095-.417-.886-.521s-.573-.417-.782-.678l.156-.99s.209-.209.469-.052c.209.104.521.209.938.365s.938.209 1.512.313l.573-2.867s.469-1.877.678-2.763c.365-1.46.782-2.763 1.303-3.91.469-1.199.99-2.189 1.616-2.971.626-.834 1.407-1.46 2.242-1.929.834-.417 1.824-.678 2.919-.678s1.929.417 2.606 1.303c.626.834.938 2.346.834 4.483a11.46 11.46 0 0 1-.99 4.327c-.626 1.251-1.303 2.346-2.189 3.336-.834.99-1.772 1.772-2.763 2.398-1.043.626-1.981 1.095-2.919 1.355l-.886 4.796-.782 4.692-.73 4.275-.782 3.649-.73 3.284-.886 3.545-1.043 4.17c-.156.313-.313.573-.521.782s-.417.417-.626.521c-.209.156-.469.313-.73.417-.678.261-1.251.313-1.72.156s-.886-.626-1.251-1.407c-.365-.73-.73-1.72-.99-2.867l-.886-3.753c-.313-1.46-.573-3.076-.678-4.796l-.365-5.213-.209-5.317-.209-5.004-.469-5.473-.573-4.118-.469 2.294-.573 2.606zm17.098-2.137l-.365 1.824c.782-.469 1.564-1.043 2.294-1.772.678-.73 1.303-1.512 1.824-2.346s.886-1.616 1.199-2.45a9.58 9.58 0 0 0 .469-2.242c.052-.469 0-.834-.104-1.147-.156-.261-.365-.417-.678-.417-.156 0-.417.104-.782.261-.365.209-.73.573-1.199 1.199-.417.573-.886 1.46-1.355 2.554-.417 1.147-.886 2.659-1.303 4.535z"/><use xlink:href="#E"/><path d="M249.251 45.783l-.626 3.023-.886 3.858-1.095 4.066-1.407 3.597c-.521 1.095-1.095 1.981-1.72 2.659-.573.678-1.251.99-2.033.99-1.095 0-2.085-.313-2.867-.99-.782-.626-1.46-1.46-1.981-2.502-.573-.99-.938-2.085-1.199-3.232s-.417-2.189-.417-3.18c0-1.355.156-2.502.365-3.388.261-.886.678-1.772 1.251-2.554.626-.834 1.407-1.72 2.45-2.606l3.91-3.44 2.242-1.929 2.033-1.668.469-1.929.365-1.564c-.886 1.147-1.929 2.189-3.18 2.971-1.199.834-2.659 1.251-4.222 1.251-1.46 0-2.659-.678-3.545-1.981s-1.355-3.232-1.355-5.786c0-1.251.261-2.711.73-4.327s1.147-3.128 2.033-4.587c.886-1.407 1.929-2.606 3.232-3.597a6.99 6.99 0 0 1 4.327-1.46c.782 0 1.407.156 1.929.521.573.417 1.043.886 1.407 1.407.365.573.626 1.147.834 1.772l.469 1.772.156-.626.156-.573c.313-1.147.73-1.981 1.147-2.398s1.043-.626 1.929-.626c.469 0 .834.104 1.199.261.313.156.469.313.469.469l-.73 1.512c-.104.209-.209.469-.313.834l-.417 1.46-.365 1.668-.73 3.076-.886 3.91-.938 4.17c.938-.521 1.929-1.199 2.919-1.981l2.919-2.398 2.45-2.294c.73-.73 1.251-1.355 1.564-1.824.261-.417.573-.678.938-.886.313-.156.626-.209.886-.156a.55.55 0 0 1 .469.469c.052.261-.052.573-.365 1.043-.782 1.251-1.72 2.45-2.815 3.649l-3.44 3.232-3.44 2.659-2.815 1.877-.834 3.701-.626 2.606zm-6.412-10.061c.678 0 1.355-.156 1.981-.521.626-.417 1.199-.834 1.72-1.303.521-.521.938-.99 1.251-1.512.365-.521.626-.938.782-1.251.156-.261.313-.678.469-1.199.209-.521.365-.99.469-1.46s.104-.938.104-1.303-.156-.573-.365-.626c-.209 0-.365-.156-.469-.365-.156-.261-.261-.521-.313-.834s-.104-.626-.104-.938c-.052-.261-.052-.573-.104-.782-.156-1.199-.469-2.085-.834-2.606-.417-.521-.886-.834-1.407-.834-.834 0-1.616.365-2.398 1.043s-1.46 1.564-2.033 2.606c-.626 1.095-1.095 2.242-1.407 3.545a12.77 12.77 0 0 0-.521 3.597c0 1.46.209 2.606.626 3.44.417.886 1.251 1.303 2.554 1.303zm-2.346 23.614c.678 0 1.199-.469 1.668-1.46.417-1.043.834-2.398 1.303-4.118l.469-1.772.626-2.606.834-3.18.834-3.44c-.261.261-.521.469-.834.73l-.886.886-2.189 2.085c-.678.678-1.303 1.355-1.824 2.085a8.67 8.67 0 0 0-1.303 2.346c-.313.886-.469 1.824-.469 2.971l.104 2.763c.104.678.209 1.251.365 1.668s.313.678.573.834c.209.156.469.209.73.209z"/><path d="M286.052 27.278c.209-.261.469-.417.73-.417s.469.052.626.209.209.365.209.678c-.052.313-.156.626-.469.99-.626.886-1.355 1.824-2.242 2.763-.834.938-1.72 1.824-2.711 2.711l-2.919 2.502c-.99.782-1.929 1.407-2.867 1.929-.99.573-1.877.886-2.554.886s-1.407-.469-2.085-1.355c-.573-.782-.886-1.616-.886-2.502.052-.886.209-2.033.626-3.388.209-.834.573-1.877.99-3.023a34.36 34.36 0 0 0 .99-3.388c.261-1.095.365-2.033.261-2.763-.104-.782-.573-1.147-1.355-1.147-.521 0-1.095.156-1.772.521a15.27 15.27 0 0 0-1.877 1.46c-.626.626-1.199 1.251-1.772 2.033l-1.564 2.189-.782 3.91-.73 3.545-.782 3.388c-.156.156-.417.261-.626.365-.261.052-.469.104-.678.104s-.469-.052-.73-.052l-.73-.313c-.209-.156-.417-.313-.626-.573-.209-.209-.365-.469-.469-.886l3.649-15.117 2.033-8.705 1.095-4.9.261-1.929.104-1.668s-.052-1.095-.156-1.564a4.62 4.62 0 0 1 .886-.417c.313-.104.626-.156.938-.261.365-.104.782-.156 1.147-.261l.99-.104c.261 0 .521.052.782.104.209.052.365.156.469.313.209.209.261.521.261 1.043s-.052 1.043-.104 1.564l-.469 2.085-2.398 8.028s-1.72 5.369-2.45 8.341c.417-.678.99-1.407 1.564-2.085.626-.73 1.303-1.407 2.033-1.981s1.512-1.095 2.294-1.46a5.81 5.81 0 0 1 2.606-.626c.469 0 .938.104 1.355.261s.782.417 1.095.73c.365.365.573.834.782 1.46.156.573.209 1.303.209 2.189 0 .573-.104 1.095-.209 1.668-.104.626-.261 1.251-.469 1.929a61.52 61.52 0 0 1-.782 2.346l-1.147 2.919-.73 1.981c-.156.573-.156 1.043.104 1.46.313.521.886.626 1.824.365.886-.313 2.242-1.147 4.014-2.606l1.407-1.303 1.46-1.564 1.303-1.46 1.043-1.147z"/><path d="M302.828 25.609a.85.85 0 0 1 .573-.365c.209-.052.365-.052.521.052.104.104.209.261.209.521.052.209-.052.573-.261.938-.678 1.303-1.564 2.711-2.659 4.17l-3.493 4.222c-1.251 1.303-2.45 2.398-3.597 3.232s-2.085 1.251-2.867 1.251c-1.147 0-2.085-.209-2.815-.626-.73-.469-1.355-.99-1.772-1.616-.417-.678-.73-1.355-.886-2.137s-.209-1.46-.156-2.137l.365-2.919.834-4.848 1.147-5.995 1.355-6.099-1.772.209c-.573.052-1.095.052-1.564.052-1.095 0-2.085-.104-3.076-.365s-1.668-.469-2.137-.73c-.313-.156-.417-.313-.365-.573 0-.261.104-.521.313-.782.156-.261.365-.469.626-.678.261-.156.469-.261.678-.261l2.085.156 2.45.052 1.824-.156c.626-.052 1.199-.156 1.772-.261l1.303-4.222c.417-1.251.834-2.085 1.147-2.554.104-.156.313-.313.678-.417s.73-.209 1.147-.261a4.61 4.61 0 0 1 1.199 0c.365.052.626.156.782.365.209.313.261.99.209 2.085 0 1.147-.209 2.554-.573 4.275 1.46 0 2.711.104 3.805.261l2.815.521c.782.156 1.407.365 1.929.521l1.043.417c.261.052.365.209.365.469.052.313 0 .573-.156.886-.104.261-.313.521-.573.73s-.573.261-.886.209l-1.147-.209a9.71 9.71 0 0 0-1.564-.261l-2.085-.209-2.867-.104-1.46.052c-.156.521-.261 1.095-.365 1.616l-.521 1.616-1.512 4.431-1.824 4.796-2.398 5.786c-.209 1.46-.209 2.554.052 3.336.261.73.573 1.303.938 1.616.469.365.99.573 1.668.626.469.052 1.095-.104 1.824-.521s1.512-.99 2.294-1.72l2.346-2.346 2.242-2.502 1.772-2.189 1.043-1.407zm22.52 22.364c-1.72 0-3.232-.417-4.587-1.251-1.407-.782-2.554-1.929-3.545-3.336-.938-1.46-1.668-3.128-2.189-5.004-.469-1.929-.678-3.962-.626-6.151.052-2.033.313-4.222.782-6.62a45.63 45.63 0 0 1 1.981-7.142c.834-2.398 1.877-4.692 3.076-6.933s2.554-4.17 4.118-5.891c1.564-1.668 3.336-3.076 5.213-4.066 1.877-1.043 4.014-1.564 6.255-1.564 1.407 0 2.554.261 3.545.834s1.772 1.303 2.346 2.189c.573.938.99 1.981 1.251 3.128a19.34 19.34 0 0 1 .313 3.493c-.104 1.147-.261 2.242-.521 3.284a9.52 9.52 0 0 1-1.043 2.815c-.47.834-1.043 1.512-1.668 1.981-.678.469-1.407.73-2.294.73-.417 0-.782-.156-1.147-.417-.365-.209-.678-.469-1.043-.886s-.678-.99-.99-1.772c.886-.417 1.616-1.043 2.137-1.981s.938-1.929 1.199-2.919c.313-1.147.521-2.45.626-3.858.052-1.407-.209-2.45-.886-3.076-.626-.626-1.355-.938-2.189-.938-1.564 0-3.284.782-5.004 2.45-1.772 1.668-3.44 3.91-4.952 6.777-1.512 2.815-2.763 6.099-3.805 9.904-1.043 3.753-1.616 7.715-1.824 11.937-.052 1.929.104 3.545.417 4.848s.782 2.398 1.355 3.232c.626.886 1.251 1.46 2.033 1.877.73.365 1.46.521 2.242.521a8.18 8.18 0 0 0 3.336-.73c1.043-.521 2.033-1.147 2.867-1.877.886-.782 1.616-1.564 2.242-2.346s1.147-1.512 1.46-2.085c.261-.469.521-.73.782-.834a.75.75 0 0 1 .678.052c.209.156.365.417.417.73.104.313 0 .73-.209 1.147-.573 1.147-1.251 2.294-2.085 3.493a20.1 20.1 0 0 1-2.815 3.128c-1.043.886-2.137 1.668-3.388 2.242a8.91 8.91 0 0 1-3.858.886z"/><use xlink:href="#F"/><path d="M387.245 36.139c0-.73.104-1.512.209-2.45l.626-2.815.678-2.815.626-2.45c.209-.886.209-1.564-.052-2.033-.209-.469-.626-.73-1.199-.73-.313 0-.834.261-1.616.73s-1.668 1.303-2.606 2.45c-.938 1.199-1.824 2.763-2.763 4.744-.886 1.981-1.564 4.483-2.085 7.559-.678.365-1.251.573-1.824.678l-.834.156c-.678 0-1.095-.104-1.303-.365s-.209-.834.104-1.824c.104-.469.365-1.251.73-2.294l1.043-3.44.886-3.701c.261-1.251.365-2.346.365-3.232 0-.678-.104-1.095-.313-1.355-.209-.209-.521-.365-.938-.365-.313 0-.834.209-1.512.521-.73.365-1.512.99-2.398 1.981s-1.772 2.346-2.659 4.118c-.834 1.72-1.564 4.014-2.189 6.777v-.104l-.209.834-.313 1.512-2.554 1.147a5.41 5.41 0 0 1-.626.156 1.84 1.84 0 0 1-.73-.156c-.209-.104-.365-.365-.469-.73s-.052-.938.104-1.668l3.232-13.293c.104-.469.156-.886.209-1.303a3.97 3.97 0 0 0 .156-1.095c0-.313 0-.626-.104-.886.573-.261 1.095-.469 1.564-.573a7.09 7.09 0 0 1 1.043-.313c.365-.104.626-.156.886-.156 1.095 0 1.46.938 1.043 2.815l-.573 2.346a27.83 27.83 0 0 1 2.033-2.294c.73-.73 1.46-1.407 2.242-1.981.73-.573 1.46-.99 2.242-1.355.782-.313 1.512-.521 2.294-.521.573 0 1.043.209 1.407.521.417.365.73.782.938 1.355s.365 1.199.365 1.981c.052.782 0 1.564-.104 2.346l1.824-2.137c.678-.73 1.355-1.407 2.085-1.981a11.81 11.81 0 0 1 2.294-1.407c.73-.365 1.512-.573 2.294-.573.938 0 1.668.261 2.137.834.469.521.834 1.251.99 2.085.209.834.261 1.772.156 2.763-.052.938-.209 1.929-.417 2.815l-1.72 6.881c-.365 1.72 0 2.554 1.043 2.554.886 0 1.824-.417 2.815-1.199 1.043-.834 2.033-1.824 2.971-2.919l2.763-3.493 2.137-2.815c.156-.261.417-.365.626-.417s.417 0 .521.104a.78.78 0 0 1 .261.626c.052.261-.052.573-.261.99l-2.502 3.962c-.99 1.46-2.033 2.763-3.232 4.014-1.147 1.303-2.398 2.346-3.753 3.18-1.303.834-2.659 1.251-4.118 1.251-.469 0-.938-.052-1.407-.104-.417-.104-.886-.313-1.251-.573a2.41 2.41 0 0 1-.938-1.095c-.261-.469-.365-1.043-.365-1.772z"/><path d="M397.294 60.223c-.261-.104-.469-.261-.73-.469-.209-.156-.417-.365-.626-.626s-.365-.573-.469-.938l2.398-9.487 1.72-6.725 1.303-5.265 1.043-4.066.886-3.858.886-3.805c.313-1.303.521-2.398.573-3.18.104-.782-.156-1.46-.73-2.033.417-.365.834-.626 1.251-.834.417-.156.782-.313 1.147-.365.365-.104.73-.104 1.095-.104.938.104 1.512.365 1.72.886s.261 1.303.052 2.45c0 .156-.052.313-.052.417s-.052.261-.052.365l1.616-1.564c.573-.521 1.147-.99 1.72-1.355.626-.417 1.199-.73 1.877-.99.626-.261 1.199-.417 1.772-.417.782 0 1.407.209 1.929.626.469.365.886.886 1.147 1.512.261.678.417 1.407.521 2.189l.052 2.346c-.052.886-.209 1.772-.469 2.711s-.573 1.929-1.043 2.919c-.417.99-.938 1.929-1.512 2.867-.573.99-1.199 1.824-1.824 2.659.104.052.209.052.261.104 0 0 .052 0 .052.052l.052.052h.313c.782 0 1.616-.209 2.398-.626.834-.417 1.616-.886 2.398-1.512l2.294-2.085 1.981-2.189 1.512-1.877.886-1.199c.261-.313.521-.573.782-.678.209-.104.417-.104.573 0 .104.104.156.261.156.573 0 .261-.052.626-.261 1.095-.156.313-.469.782-.886 1.46s-.99 1.46-1.616 2.294l-2.242 2.659c-.834.938-1.668 1.72-2.606 2.502-.938.73-1.877 1.355-2.815 1.824-.99.521-1.929.782-2.815.782-.469 0-.834-.052-1.095-.052-.261-.052-.521-.104-.678-.209-.209-.052-.365-.156-.521-.261-.209-.052-.417-.156-.626-.261-.626.469-1.251.834-1.877 1.095a5.19 5.19 0 0 1-1.877.365c-.573 0-1.095-.052-1.512-.261s-.782-.469-1.043-.782-.521-.678-.678-1.043l-.417-1.147-.156.73-1.251 5.682-1.355 6.672-1.668 9.018c-.209.886-.573 1.407-1.095 1.564s-1.095.052-1.772-.209zm9.279-31.538l-.521 1.981-.626 2.711c.261-.209.573-.313.938-.417.313-.104.678-.156.99-.156.365 0 .834.156 1.407.573l2.085 1.251 1.616-2.085c.573-.73 1.095-1.564 1.512-2.346.469-.834.886-1.668 1.199-2.502s.521-1.668.521-2.45c.104-.99-.052-1.824-.365-2.398-.261-.573-.782-.834-1.512-.834-1.043 0-2.189.573-3.44 1.824s-2.502 2.867-3.805 4.848z"/><path d="M450.578 28.372l-1.824 2.502-2.346 3.023-2.346 2.711c-.73.834-1.355 1.46-1.877 1.772a6.38 6.38 0 0 1-1.199.521l-1.303.261c-.469 0-.938 0-1.303-.104a2.53 2.53 0 0 1-1.095-.417c-.313-.261-.573-.573-.782-1.043-.156-.365-.313-.834-.469-1.46s-.209-1.355-.156-2.294c-.834 1.355-1.72 2.398-2.711 3.128s-1.929 1.251-2.815 1.616c-.99.365-2.033.573-3.023.678-.469 0-.99-.156-1.564-.521-.521-.313-.99-.834-1.355-1.512s-.626-1.616-.73-2.711.052-2.398.417-3.91c.469-2.085 1.251-3.962 2.294-5.682.99-1.668 2.137-3.128 3.388-4.327 1.199-1.199 2.398-2.137 3.597-2.763 1.199-.573 2.189-.834 2.971-.782.886.156 1.616.417 2.242.782.469.365.782.886.938 1.512.156.678-.156 1.564-.886 2.659.521-.104.886-.209 1.199-.209.365-.052.573-.052.782-.052.156 0 .313 0 .365.052s.052.209.052.417-.052.626-.156 1.199l-.417 2.346-.834 3.805-.156.834-.626 2.919v.99c0 .365.052.73.156.99.104.313.261.573.521.782.209.156.521.261.938.261.313 0 .782-.209 1.303-.626a15.94 15.94 0 0 0 1.72-1.616l1.929-2.189 1.877-2.346 2.502-3.232c.313-.313.573-.521.834-.573s.469.052.626.261c.104.209.156.521.052.886-.052.417-.313.886-.73 1.46zm-14.909 2.242l.626-2.398.573-2.659c.209-.834.313-1.564.417-2.137.052-.521.052-.782-.104-.782-.156.052-.365.104-.573.156-.156.104-.365.104-.626.156l-.834.156c.261-.521.417-.99.469-1.355s.052-.626.052-.834c-.052-.209-.104-.417-.209-.573-.365-.313-1.043-.052-1.981.782-.938.782-1.981 2.242-3.232 4.379-.469.886-.886 1.824-1.199 2.815s-.521 1.929-.626 2.815c-.156.886-.156 1.668-.104 2.346.104.678.209 1.095.417 1.303.365.365.782.521 1.251.521.521 0 .99-.156 1.46-.417.521-.261.99-.573 1.512-.99l1.303-1.251.99-1.251.417-.782z"/><use xlink:href="#C" x="362.354"/><use xlink:href="#E" x="249.745"/><use xlink:href="#F" x="142.537"/><use xlink:href="#C" x="421.251"/></g><defs ><path id="B" d="M88.458 27.903c-.99 1.512-2.137 2.919-3.44 4.327s-2.659 2.659-4.118 3.805c-1.407 1.095-2.919 1.981-4.431 2.659s-2.971.99-4.379.99c-.73 0-1.564-.156-2.398-.521-.886-.365-1.668-.886-2.398-1.668-.73-.73-1.251-1.668-1.72-2.867-.417-1.199-.521-2.659-.365-4.327.156-1.407.573-2.867 1.303-4.431.73-1.512 1.616-2.971 2.711-4.222 1.043-1.303 2.242-2.346 3.597-3.232 1.355-.834 2.711-1.251 4.066-1.251 1.251 0 2.189.313 2.763.938.626.678.834 1.46.782 2.398-.104 1.043-.417 2.033-.886 2.919s-1.095 1.668-1.772 2.398-1.407 1.355-2.137 1.929l-2.189 1.564-2.137 1.46-1.772 1.251c.052.834.209 1.564.469 2.137s.626 1.043.99 1.407c.417.365.886.626 1.407.73.521.156 1.095.261 1.616.261 1.147 0 2.346-.365 3.597-1.095s2.502-1.616 3.701-2.659l3.388-3.232 2.554-2.919c.261-.261.469-.417.73-.469s.469 0 .626.104.209.313.209.626c0 .261-.104.626-.365.99zm-13.032-7.871c-.365 0-.886.209-1.407.626-.573.417-1.147.99-1.668 1.772-.573.782-1.043 1.668-1.512 2.815-.521 1.095-.834 2.346-1.095 3.753l1.303-.938c.521-.313.99-.678 1.46-1.043 1.46-1.095 2.45-2.085 3.023-2.919.573-.886.938-1.616.99-2.189.052-.678 0-1.147-.209-1.407-.209-.313-.469-.469-.886-.469z"/><path id="C" d="M99.93 39.736c-.782 0-1.46-.104-2.033-.417a3.47 3.47 0 0 1-1.303-1.147c-.365-.469-.573-1.043-.678-1.668s-.052-1.303.104-1.981l.521-1.929.73-2.606.678-2.763c.261-.938.365-1.772.469-2.554.052-.782 0-1.407-.104-1.877-.156-.521-.417-.73-.886-.73-.521 0-1.095.156-1.668.521s-1.147.834-1.772 1.46c-.573.573-1.199 1.303-1.772 2.085l-1.772 2.502-.73 3.023-.573 2.346c-.104.678-.261 1.303-.417 1.824l-.365 1.512c-.104.313-.365.626-.886.99a9.24 9.24 0 0 1-1.616.782c-.626.209-1.095.313-1.512.313s-.626-.156-.573-.469l.365-1.407.678-2.502.782-3.076.73-3.128.573-2.554.626-2.867.886-3.545c.261-.209.521-.365.73-.521.261-.104.521-.209.834-.261.261-.104.521-.156.834-.209.261 0 .573 0 .834.052l.73.156c.261.104.469.209.678.417-.104.209-.209.573-.365.99l-.365 1.355-.521 1.668c.417-.626.938-1.251 1.512-1.877a9.26 9.26 0 0 1 1.824-1.668c.626-.521 1.355-.938 2.085-1.251.782-.365 1.512-.521 2.294-.521.678 0 1.251.209 1.72.573a3.33 3.33 0 0 1 1.199 1.564c.313.678.469 1.46.521 2.346.052.938-.052 1.929-.365 3.023l-.573 2.242-.626 2.502-.938 3.18c-.209.782-.313 1.407-.261 1.929.052.573.417.834.99.834.626 0 1.407-.365 2.346-1.147.938-.73 1.877-1.616 2.815-2.659l2.711-3.232 1.929-2.711c.313-.417.573-.73.886-.834.261-.156.469-.156.626-.052s.209.313.209.678-.104.834-.417 1.355c-.209.469-.573 1.095-1.095 1.877-.469.782-1.043 1.616-1.72 2.502l-2.189 2.659c-.782.886-1.616 1.72-2.45 2.45s-1.72 1.303-2.554 1.772-1.616.678-2.346.678z"/><path id="D" d="M125.103 28.737l-.521 3.023c-.156.938-.209 1.72-.261 2.294-.052.834.104 1.46.469 1.824.313.365.678.573 1.095.573.469 0 1.095-.261 1.772-.73a19.25 19.25 0 0 0 2.189-1.772l2.346-2.346 2.189-2.398 1.668-2.033.938-1.095a1.31 1.31 0 0 1 .626-.365c.261-.052.417 0 .573.104.104.104.156.261.156.573 0 .261-.104.573-.365.99l-1.616 2.294-2.137 2.659-2.45 2.711c-.886.886-1.72 1.616-2.606 2.346a13.53 13.53 0 0 1-2.502 1.616c-.782.417-1.512.626-2.137.626-.469 0-.938-.104-1.355-.365-.417-.313-.834-.626-1.147-1.095-.365-.417-.626-.938-.782-1.46-.209-.573-.261-1.095-.261-1.616.052-.261.104-.678.156-1.251-1.407 1.616-2.815 2.867-4.275 3.805s-2.815 1.407-4.17 1.407c-.469 0-.99-.156-1.512-.365-.521-.261-1.043-.626-1.46-1.199-.417-.521-.782-1.251-1.043-2.137-.261-.834-.365-1.929-.313-3.18a18.39 18.39 0 0 1 1.199-5.63c.678-1.72 1.512-3.284 2.554-4.587s2.189-2.346 3.493-3.076c1.303-.782 2.659-1.147 3.962-1.147.573 0 1.095.104 1.564.417.469.261.886.678 1.251 1.095.313.469.626.99.834 1.512l.469 1.512.678-2.867.626-2.711 1.043-4.066 1.199-4.327 1.46-5.161c.313-.261.678-.469.938-.573.313-.156.626-.261.886-.313.313-.104.573-.156.886-.156a4.59 4.59 0 0 1 .886.104c.261.104.521.313.678.678.209.365.313.886.417 1.616.052.678.052 1.668 0 2.867-.104 1.512-.365 3.128-.782 4.9-.469 1.772-1.095 3.597-1.824 5.473s-1.616 3.753-2.554 5.63a58.18 58.18 0 0 1-3.128 5.369zm-3.023.678c.156-.626.261-1.303.365-1.929l.469-1.981-.365.209c-.365.156-.626.156-.782-.052-.156-.156-.209-.469-.209-.886l-.052-1.095c0-.521-.104-1.043-.261-1.616s-.417-1.043-.678-1.46c-.313-.417-.73-.626-1.303-.626-.782 0-1.564.365-2.398 1.147-.782.834-1.564 1.772-2.294 2.919-.678 1.147-1.303 2.346-1.772 3.649s-.73 2.45-.782 3.44c-.104 1.668.104 2.815.573 3.545.469.678 1.147 1.043 1.929 1.043.626 0 1.303-.209 2.033-.678.73-.521 1.46-1.095 2.137-1.772l1.929-2.085 1.46-1.772z"/><path id="E" d="M232.705 8.511c-.104.365-.313.73-.573 1.095-.313.365-.626.626-.99.834-.365.261-.73.365-1.095.469-.365.052-.678 0-.938-.209-.678-.573-1.043-1.147-1.095-1.772s.104-1.199.469-1.772a4.07 4.07 0 0 1 1.251-1.407c.521-.417.938-.626 1.355-.73.365-.052.678.052.938.261s.417.521.573.834c.104.365.209.782.209 1.199a2.95 2.95 0 0 1-.104 1.199zm-7.037 10.843c.156-.209.521-.365.99-.521a6.6 6.6 0 0 1 1.46-.313c.521-.104.99-.156 1.407-.156.417-.052.678 0 .73 0 .052.052-.052.417-.261 1.095l-.782 2.398-.938 2.815-.782 2.346-.573 2.085-.678 2.242-.365 2.033c-.052.678 0 1.147.156 1.512s.365.678.573.834a1 1 0 0 0 .626.209c.678 0 1.564-.365 2.606-1.095a29 29 0 0 0 3.128-2.711c1.095-.99 2.085-2.085 2.971-3.128l2.033-2.554c.313-.365.573-.573.886-.678.261-.104.521-.104.678.052.209.104.313.365.313.678 0 .261-.104.626-.313 1.043-.573.938-1.355 2.085-2.398 3.388s-2.189 2.554-3.388 3.753c-1.147 1.199-2.346 2.242-3.493 3.076-1.095.886-2.033 1.303-2.763 1.355-.573 0-1.147-.052-1.668-.313a5.78 5.78 0 0 1-1.564-.886c-.469-.417-.834-.886-1.147-1.407s-.469-1.043-.521-1.616c-.052-.886-.052-2.033 0-3.493.104-1.512.313-3.023.573-4.535a36.75 36.75 0 0 1 1.043-4.431c.417-1.355.938-2.398 1.46-3.076z"/><path id="F" d="M358.077 30.405c-.313 1.251-.782 2.502-1.355 3.597-.573 1.147-1.303 2.085-2.085 2.919-.782.782-1.668 1.46-2.711 1.877-.99.469-2.085.73-3.284.73-1.355 0-2.45-.313-3.284-.938-.782-.573-1.355-1.303-1.772-2.189-.365-.886-.626-1.877-.678-2.919l-.156-2.919c0-.678.104-1.355.261-2.137.104-.782.365-1.616.626-2.398.261-.834.626-1.668 1.043-2.45.417-.834.886-1.564 1.512-2.242.156-.573.469-1.095.938-1.512.417-.469.886-.834 1.46-1.095.573-.313 1.147-.521 1.824-.678.626-.156 1.251-.209 1.877-.209h.261c.104.052.209.104.261.104.469.052 1.043.209 1.668.521.678.313 1.303.782 1.929 1.407.626.573 1.199 1.355 1.616 2.294.469.938.678 2.085.678 3.388 0 .261-.052.626-.052.99l-.104.99 2.45-1.095 2.45-1.407 2.242-1.512 1.616-1.355c.313-.313.626-.521.834-.521.261-.052.417 0 .521.209.104.156.104.365.052.678s-.261.678-.573 1.043c-.156.209-.573.626-1.251 1.199l-2.502 1.981c-.938.73-1.981 1.407-3.076 2.085-1.147.678-2.189 1.199-3.232 1.564zm-8.601-7.767c-.104.313-.156.626-.156.99 0 .521.052 1.095.104 1.72.052.573.261 1.095.521 1.564s.678.886 1.303 1.199c.573.313 1.407.521 2.45.521.156 0 .365-.052.521-.052s.313-.052.521-.052l.261-1.199c.104-.365.104-.678.104-.938.104-.678.104-1.303 0-2.033-.052-.678-.156-1.251-.365-1.824-.156-.573-.417-1.043-.73-1.407-.261-.313-.626-.521-1.043-.521-.626 0-1.251.209-1.824.521-.626.365-1.147.886-1.668 1.512zm-3.232 8.966l.052 1.824c.104.573.209 1.095.417 1.564s.469.834.834 1.147c.313.261.782.417 1.303.417a3.81 3.81 0 0 0 1.72-.417c.469-.313.938-.678 1.355-1.147a8.39 8.39 0 0 0 1.095-1.564l.834-1.877-.678.104h-.73c-1.303 0-2.398-.365-3.336-1.147-.938-.73-1.668-1.72-2.189-2.919l-.521 2.085a12.53 12.53 0 0 0-.156 1.929z"/></defs></svg>