<?xml version="1.0" encoding="UTF-8" standalone="no"?>
<!DOCTYPE svg PUBLIC "-//W3C//DTD SVG 1.1//EN" "http://www.w3.org/Graphics/SVG/1.1/DTD/svg11.dtd">
<svg width="100%" height="100%" viewBox="0 0 534 64" version="1.1" xmlns="http://www.w3.org/2000/svg" xmlns:xlink="http://www.w3.org/1999/xlink" xml:space="preserve" xmlns:serif="http://www.serif.com/" style="fill-rule:evenodd;clip-rule:evenodd;stroke-linejoin:round;stroke-miterlimit:2;">
    <g transform="matrix(1,0,0,1,-6.01857,-2.50515)">
        <g transform="matrix(0.602644,0,0,0.602644,-135.905,-195.134)">
            <g transform="matrix(86.4995,0,0,86.4995,238.124,391.814)">
                <path d="M0.19,0.182C0.16,0.182 0.131,0.177 0.105,0.167C0.079,0.157 0.056,0.144 0.036,0.126C0.016,0.108 0,0.088 -0.012,0.064C-0.023,0.04 -0.03,0.014 -0.03,-0.014C-0.031,-0.05 -0.025,-0.083 -0.013,-0.111C-0.001,-0.14 0.015,-0.165 0.035,-0.188C0.055,-0.21 0.077,-0.228 0.103,-0.244C0.128,-0.259 0.154,-0.271 0.181,-0.281C0.166,-0.289 0.153,-0.299 0.14,-0.31C0.127,-0.321 0.116,-0.333 0.106,-0.347C0.097,-0.36 0.089,-0.375 0.083,-0.39C0.077,-0.405 0.074,-0.42 0.074,-0.435C0.073,-0.48 0.082,-0.521 0.102,-0.559C0.122,-0.596 0.147,-0.627 0.179,-0.654C0.21,-0.68 0.245,-0.701 0.284,-0.715C0.322,-0.729 0.36,-0.736 0.397,-0.736C0.422,-0.736 0.443,-0.732 0.461,-0.724C0.479,-0.716 0.493,-0.706 0.504,-0.694C0.515,-0.682 0.523,-0.669 0.529,-0.655C0.534,-0.641 0.537,-0.628 0.538,-0.616C0.539,-0.595 0.536,-0.573 0.53,-0.551C0.524,-0.529 0.516,-0.509 0.506,-0.491C0.497,-0.473 0.486,-0.458 0.475,-0.447C0.463,-0.435 0.451,-0.43 0.44,-0.43C0.432,-0.43 0.423,-0.431 0.414,-0.434C0.406,-0.436 0.397,-0.439 0.387,-0.443C0.376,-0.448 0.366,-0.455 0.355,-0.464C0.372,-0.47 0.387,-0.48 0.4,-0.492C0.413,-0.504 0.424,-0.517 0.433,-0.532C0.442,-0.547 0.448,-0.563 0.453,-0.579C0.457,-0.595 0.459,-0.61 0.459,-0.624C0.458,-0.645 0.453,-0.661 0.444,-0.672C0.435,-0.684 0.421,-0.689 0.4,-0.689C0.373,-0.689 0.346,-0.683 0.318,-0.669C0.291,-0.656 0.267,-0.638 0.246,-0.614C0.224,-0.59 0.208,-0.562 0.196,-0.529C0.184,-0.496 0.18,-0.46 0.184,-0.422C0.187,-0.393 0.196,-0.368 0.21,-0.348C0.225,-0.327 0.239,-0.312 0.252,-0.301C0.262,-0.302 0.272,-0.303 0.281,-0.304C0.29,-0.305 0.299,-0.306 0.307,-0.306C0.318,-0.306 0.329,-0.304 0.34,-0.3C0.351,-0.296 0.356,-0.29 0.356,-0.283C0.356,-0.278 0.355,-0.272 0.353,-0.266C0.351,-0.259 0.347,-0.253 0.342,-0.247C0.337,-0.241 0.33,-0.236 0.323,-0.232C0.316,-0.229 0.308,-0.227 0.298,-0.227C0.29,-0.227 0.281,-0.229 0.27,-0.232C0.258,-0.236 0.247,-0.241 0.236,-0.247C0.212,-0.242 0.189,-0.233 0.169,-0.219C0.149,-0.206 0.132,-0.19 0.118,-0.172C0.104,-0.154 0.093,-0.134 0.085,-0.112C0.077,-0.091 0.074,-0.07 0.074,-0.05C0.075,-0.031 0.078,-0.012 0.083,0.007C0.088,0.027 0.096,0.044 0.107,0.059C0.118,0.074 0.133,0.086 0.151,0.095C0.169,0.105 0.19,0.109 0.216,0.109C0.235,0.109 0.253,0.105 0.27,0.097C0.287,0.089 0.303,0.079 0.318,0.066C0.333,0.054 0.347,0.04 0.359,0.025C0.372,0.01 0.382,-0.004 0.392,-0.019C0.401,-0.033 0.408,-0.046 0.415,-0.058C0.421,-0.069 0.425,-0.078 0.428,-0.083C0.43,-0.087 0.432,-0.09 0.436,-0.092C0.44,-0.094 0.443,-0.094 0.447,-0.093C0.45,-0.092 0.453,-0.09 0.455,-0.086C0.457,-0.082 0.457,-0.076 0.455,-0.068C0.45,-0.045 0.44,-0.019 0.426,0.01C0.411,0.039 0.393,0.066 0.371,0.092C0.348,0.117 0.322,0.139 0.292,0.156C0.261,0.173 0.228,0.182 0.19,0.182Z" style="fill:white;fill-rule:nonzero;"/>
            </g>
            <g transform="matrix(86.4995,0,0,86.4995,283.401,391.814)">
                <path d="M0.427,-0.129C0.399,-0.094 0.375,-0.067 0.354,-0.047C0.333,-0.028 0.314,-0.013 0.298,-0.003C0.282,0.007 0.267,0.013 0.255,0.016C0.243,0.018 0.231,0.02 0.222,0.02C0.209,0.02 0.199,0.017 0.19,0.011C0.182,0.005 0.175,-0.002 0.169,-0.011C0.163,-0.019 0.159,-0.028 0.155,-0.037C0.152,-0.046 0.149,-0.054 0.147,-0.061C0.145,-0.068 0.142,-0.076 0.139,-0.085C0.136,-0.094 0.133,-0.104 0.13,-0.115C0.117,-0.102 0.103,-0.087 0.089,-0.071C0.076,-0.058 0.063,-0.043 0.047,-0.027C0.031,-0.01 0.015,0.007 -0.001,0.023C-0.007,0.025 -0.012,0.025 -0.017,0.023C-0.021,0.022 -0.025,0.021 -0.028,0.02C-0.032,0.018 -0.035,0.015 -0.038,0.013C-0.04,0.011 -0.042,0.008 -0.044,0.006C-0.045,0.004 -0.047,0.001 -0.048,-0.001C-0.05,-0.004 -0.05,-0.007 -0.05,-0.011C-0.031,-0.032 -0.012,-0.054 0.006,-0.075C0.025,-0.096 0.042,-0.115 0.057,-0.132C0.074,-0.151 0.09,-0.17 0.105,-0.188C0.096,-0.213 0.088,-0.236 0.081,-0.258C0.074,-0.279 0.069,-0.295 0.065,-0.304C0.059,-0.323 0.053,-0.338 0.048,-0.351C0.043,-0.363 0.035,-0.372 0.023,-0.377C0.031,-0.384 0.039,-0.39 0.046,-0.394C0.054,-0.398 0.061,-0.401 0.066,-0.403C0.074,-0.406 0.08,-0.407 0.085,-0.407C0.1,-0.407 0.113,-0.394 0.125,-0.368C0.136,-0.341 0.147,-0.305 0.159,-0.259C0.159,-0.257 0.16,-0.255 0.161,-0.252C0.175,-0.268 0.188,-0.284 0.201,-0.298C0.213,-0.312 0.224,-0.325 0.234,-0.336C0.243,-0.347 0.251,-0.356 0.257,-0.362C0.263,-0.369 0.266,-0.373 0.268,-0.374C0.281,-0.389 0.292,-0.397 0.303,-0.399C0.313,-0.401 0.323,-0.399 0.331,-0.393C0.335,-0.39 0.339,-0.387 0.344,-0.385C0.352,-0.38 0.362,-0.375 0.374,-0.37C0.363,-0.36 0.351,-0.348 0.337,-0.334C0.324,-0.321 0.312,-0.308 0.3,-0.296C0.286,-0.282 0.272,-0.267 0.259,-0.253C0.249,-0.243 0.237,-0.231 0.224,-0.217C0.211,-0.202 0.197,-0.187 0.182,-0.17C0.186,-0.154 0.191,-0.138 0.196,-0.124C0.201,-0.11 0.207,-0.097 0.212,-0.086C0.218,-0.075 0.224,-0.066 0.229,-0.06C0.235,-0.053 0.242,-0.05 0.248,-0.05C0.258,-0.05 0.27,-0.053 0.283,-0.058C0.296,-0.064 0.31,-0.071 0.324,-0.081C0.339,-0.091 0.353,-0.102 0.368,-0.115C0.382,-0.128 0.397,-0.142 0.411,-0.156C0.416,-0.161 0.421,-0.164 0.426,-0.165C0.431,-0.166 0.435,-0.165 0.437,-0.162C0.438,-0.16 0.439,-0.155 0.438,-0.149C0.437,-0.144 0.433,-0.137 0.427,-0.129Z" style="fill:white;fill-rule:nonzero;"/>
            </g>
            <g transform="matrix(86.4995,0,0,86.4995,317.95,391.814)">
                <path d="M0.36,-0.247C0.363,-0.251 0.366,-0.253 0.371,-0.254C0.375,-0.255 0.378,-0.255 0.381,-0.253C0.383,-0.251 0.385,-0.248 0.385,-0.243C0.386,-0.239 0.384,-0.232 0.38,-0.225C0.367,-0.2 0.35,-0.173 0.329,-0.145C0.307,-0.116 0.285,-0.089 0.262,-0.064C0.238,-0.039 0.215,-0.018 0.193,-0.002C0.171,0.014 0.153,0.022 0.138,0.022C0.116,0.022 0.098,0.018 0.084,0.01C0.07,0.001 0.058,-0.009 0.05,-0.021C0.042,-0.034 0.036,-0.047 0.033,-0.062C0.03,-0.077 0.029,-0.09 0.03,-0.103C0.031,-0.113 0.033,-0.132 0.037,-0.159C0.041,-0.186 0.046,-0.217 0.053,-0.252C0.059,-0.288 0.067,-0.326 0.075,-0.367C0.083,-0.407 0.091,-0.447 0.101,-0.484C0.09,-0.483 0.078,-0.482 0.067,-0.48C0.056,-0.479 0.046,-0.479 0.037,-0.479C0.016,-0.479 -0.003,-0.481 -0.022,-0.486C-0.041,-0.491 -0.054,-0.495 -0.063,-0.5C-0.069,-0.503 -0.071,-0.506 -0.07,-0.511C-0.07,-0.516 -0.068,-0.521 -0.064,-0.526C-0.061,-0.531 -0.057,-0.535 -0.052,-0.539C-0.047,-0.542 -0.043,-0.544 -0.039,-0.544C-0.027,-0.543 -0.013,-0.542 0.001,-0.541C0.015,-0.54 0.031,-0.539 0.048,-0.54C0.06,-0.541 0.072,-0.542 0.083,-0.543C0.095,-0.544 0.106,-0.546 0.117,-0.548C0.126,-0.579 0.134,-0.606 0.142,-0.629C0.15,-0.653 0.158,-0.669 0.164,-0.678C0.166,-0.681 0.17,-0.684 0.177,-0.686C0.184,-0.688 0.191,-0.69 0.199,-0.691C0.207,-0.692 0.215,-0.692 0.222,-0.691C0.229,-0.69 0.234,-0.688 0.237,-0.684C0.241,-0.678 0.242,-0.665 0.241,-0.644C0.241,-0.622 0.237,-0.595 0.23,-0.562C0.258,-0.562 0.282,-0.56 0.303,-0.557C0.324,-0.554 0.342,-0.551 0.357,-0.547C0.372,-0.544 0.384,-0.54 0.394,-0.537C0.403,-0.533 0.41,-0.531 0.414,-0.529C0.419,-0.528 0.421,-0.525 0.421,-0.52C0.422,-0.514 0.421,-0.509 0.418,-0.503C0.416,-0.498 0.412,-0.493 0.407,-0.489C0.402,-0.485 0.396,-0.484 0.39,-0.485C0.383,-0.486 0.376,-0.487 0.368,-0.489C0.36,-0.491 0.35,-0.493 0.338,-0.494C0.327,-0.495 0.313,-0.497 0.298,-0.498C0.282,-0.499 0.264,-0.5 0.243,-0.5L0.215,-0.499C0.212,-0.489 0.21,-0.478 0.208,-0.468C0.205,-0.458 0.202,-0.448 0.198,-0.437C0.19,-0.41 0.18,-0.382 0.169,-0.352C0.159,-0.325 0.147,-0.294 0.134,-0.26C0.12,-0.225 0.105,-0.188 0.088,-0.149C0.084,-0.121 0.084,-0.1 0.089,-0.085C0.094,-0.071 0.1,-0.06 0.107,-0.054C0.116,-0.047 0.126,-0.043 0.139,-0.042C0.148,-0.041 0.16,-0.044 0.174,-0.052C0.188,-0.06 0.203,-0.071 0.218,-0.085C0.233,-0.099 0.248,-0.114 0.263,-0.13C0.278,-0.146 0.293,-0.162 0.306,-0.178C0.319,-0.193 0.33,-0.208 0.34,-0.22C0.35,-0.233 0.356,-0.242 0.36,-0.247Z" style="fill:white;fill-rule:nonzero;"/>
            </g>
            <g transform="matrix(86.4995,0,0,86.4995,344.052,391.814)">
                <path d="M0.442,-0.203C0.423,-0.174 0.401,-0.147 0.376,-0.12C0.351,-0.093 0.325,-0.069 0.297,-0.047C0.27,-0.026 0.241,-0.009 0.212,0.004C0.183,0.017 0.155,0.023 0.128,0.023C0.114,0.023 0.098,0.02 0.082,0.013C0.065,0.006 0.05,-0.004 0.036,-0.019C0.022,-0.033 0.012,-0.051 0.003,-0.074C-0.005,-0.097 -0.007,-0.125 -0.004,-0.157C-0.001,-0.184 0.007,-0.212 0.021,-0.242C0.035,-0.271 0.052,-0.299 0.073,-0.323C0.093,-0.348 0.116,-0.368 0.142,-0.385C0.168,-0.401 0.194,-0.409 0.22,-0.409C0.244,-0.409 0.262,-0.403 0.273,-0.391C0.285,-0.378 0.289,-0.363 0.288,-0.345C0.286,-0.325 0.28,-0.306 0.271,-0.289C0.262,-0.272 0.25,-0.257 0.237,-0.243C0.224,-0.229 0.21,-0.217 0.196,-0.206C0.181,-0.195 0.167,-0.185 0.154,-0.176C0.14,-0.166 0.126,-0.157 0.113,-0.148C0.1,-0.139 0.089,-0.131 0.079,-0.124C0.08,-0.108 0.083,-0.094 0.088,-0.083C0.093,-0.072 0.1,-0.063 0.107,-0.056C0.115,-0.049 0.124,-0.044 0.134,-0.042C0.144,-0.039 0.155,-0.037 0.165,-0.037C0.187,-0.037 0.21,-0.044 0.234,-0.058C0.258,-0.072 0.282,-0.089 0.305,-0.109C0.328,-0.129 0.35,-0.149 0.37,-0.171C0.389,-0.192 0.406,-0.211 0.419,-0.227C0.424,-0.232 0.428,-0.235 0.433,-0.236C0.438,-0.237 0.442,-0.236 0.445,-0.234C0.448,-0.232 0.449,-0.228 0.449,-0.222C0.449,-0.217 0.447,-0.21 0.442,-0.203ZM0.192,-0.354C0.185,-0.354 0.175,-0.35 0.165,-0.342C0.154,-0.334 0.143,-0.323 0.133,-0.308C0.122,-0.293 0.113,-0.276 0.104,-0.254C0.094,-0.233 0.088,-0.209 0.083,-0.182C0.091,-0.188 0.099,-0.194 0.108,-0.2C0.118,-0.206 0.127,-0.213 0.136,-0.22C0.164,-0.241 0.183,-0.26 0.194,-0.276C0.205,-0.293 0.212,-0.307 0.213,-0.318C0.214,-0.331 0.213,-0.34 0.209,-0.345C0.205,-0.351 0.2,-0.354 0.192,-0.354Z" style="fill:white;fill-rule:nonzero;"/>
            </g>
            <g transform="matrix(86.4995,0,0,86.4995,376.236,391.814)">
                <path d="M0.29,0.024C0.275,0.024 0.262,0.022 0.251,0.016C0.241,0.011 0.232,0.003 0.226,-0.006C0.219,-0.015 0.215,-0.026 0.213,-0.038C0.211,-0.05 0.212,-0.063 0.215,-0.076C0.217,-0.085 0.22,-0.097 0.225,-0.113C0.229,-0.128 0.234,-0.145 0.239,-0.163C0.244,-0.181 0.248,-0.198 0.252,-0.216C0.257,-0.234 0.259,-0.25 0.261,-0.265C0.262,-0.28 0.261,-0.292 0.259,-0.301C0.256,-0.311 0.251,-0.315 0.242,-0.315C0.232,-0.315 0.221,-0.312 0.21,-0.305C0.199,-0.298 0.188,-0.289 0.176,-0.277C0.165,-0.266 0.153,-0.252 0.142,-0.237C0.131,-0.222 0.119,-0.206 0.108,-0.189C0.103,-0.167 0.098,-0.148 0.094,-0.131C0.09,-0.115 0.086,-0.1 0.083,-0.086C0.081,-0.073 0.078,-0.061 0.075,-0.051C0.073,-0.041 0.07,-0.032 0.068,-0.022C0.066,-0.016 0.061,-0.01 0.051,-0.003C0.041,0.003 0.031,0.008 0.02,0.012C0.008,0.016 -0.001,0.018 -0.009,0.018C-0.017,0.018 -0.021,0.015 -0.02,0.009C-0.019,0.005 -0.017,-0.004 -0.013,-0.018C-0.01,-0.031 -0.005,-0.047 -0,-0.066C0.004,-0.084 0.009,-0.104 0.015,-0.125C0.02,-0.146 0.025,-0.166 0.029,-0.185C0.033,-0.2 0.036,-0.216 0.04,-0.234C0.043,-0.25 0.047,-0.268 0.052,-0.289C0.057,-0.31 0.063,-0.333 0.069,-0.357C0.074,-0.361 0.079,-0.364 0.083,-0.367C0.088,-0.369 0.093,-0.371 0.099,-0.372C0.104,-0.374 0.109,-0.375 0.115,-0.376C0.12,-0.376 0.126,-0.376 0.131,-0.375C0.135,-0.374 0.14,-0.373 0.145,-0.372C0.15,-0.37 0.154,-0.368 0.158,-0.364C0.156,-0.36 0.154,-0.353 0.151,-0.345C0.149,-0.337 0.146,-0.328 0.144,-0.319C0.141,-0.309 0.138,-0.298 0.134,-0.287C0.142,-0.299 0.152,-0.311 0.163,-0.323C0.173,-0.335 0.185,-0.346 0.198,-0.355C0.21,-0.365 0.224,-0.373 0.238,-0.379C0.253,-0.386 0.267,-0.389 0.282,-0.389C0.295,-0.389 0.306,-0.385 0.315,-0.378C0.325,-0.371 0.333,-0.361 0.338,-0.348C0.344,-0.335 0.347,-0.32 0.348,-0.303C0.349,-0.285 0.347,-0.266 0.341,-0.245L0.33,-0.202C0.327,-0.188 0.323,-0.172 0.318,-0.154C0.313,-0.135 0.307,-0.115 0.3,-0.093C0.296,-0.078 0.294,-0.066 0.295,-0.056C0.296,-0.045 0.303,-0.04 0.314,-0.04C0.326,-0.04 0.341,-0.047 0.359,-0.062C0.377,-0.076 0.395,-0.093 0.413,-0.113C0.431,-0.133 0.449,-0.154 0.465,-0.175C0.481,-0.196 0.493,-0.214 0.502,-0.227C0.508,-0.235 0.513,-0.241 0.519,-0.243C0.524,-0.246 0.528,-0.246 0.531,-0.244C0.534,-0.242 0.535,-0.238 0.535,-0.231C0.535,-0.224 0.533,-0.215 0.527,-0.205C0.523,-0.196 0.516,-0.184 0.506,-0.169C0.497,-0.154 0.486,-0.138 0.473,-0.121C0.46,-0.104 0.446,-0.087 0.431,-0.07C0.416,-0.053 0.4,-0.037 0.384,-0.023C0.368,-0.009 0.351,0.002 0.335,0.011C0.319,0.02 0.304,0.024 0.29,0.024Z" style="fill:white;fill-rule:nonzero;"/>
            </g>
            <g transform="matrix(86.4995,0,0,86.4995,416.191,391.814)">
                <path d="M0.311,-0.187C0.307,-0.166 0.304,-0.147 0.301,-0.129C0.298,-0.111 0.297,-0.096 0.296,-0.085C0.295,-0.069 0.298,-0.057 0.305,-0.05C0.311,-0.043 0.318,-0.039 0.326,-0.039C0.335,-0.039 0.347,-0.044 0.36,-0.053C0.373,-0.062 0.387,-0.073 0.402,-0.087C0.417,-0.101 0.432,-0.116 0.447,-0.132C0.462,-0.148 0.476,-0.164 0.489,-0.178C0.501,-0.193 0.512,-0.206 0.521,-0.217C0.53,-0.228 0.536,-0.235 0.539,-0.238C0.543,-0.242 0.547,-0.244 0.551,-0.245C0.556,-0.246 0.559,-0.245 0.562,-0.243C0.564,-0.241 0.565,-0.238 0.565,-0.232C0.565,-0.227 0.563,-0.221 0.558,-0.213C0.55,-0.201 0.54,-0.186 0.527,-0.169C0.515,-0.153 0.501,-0.136 0.486,-0.118C0.471,-0.101 0.456,-0.083 0.439,-0.066C0.422,-0.049 0.406,-0.035 0.389,-0.021C0.373,-0.008 0.357,0.002 0.341,0.01C0.326,0.018 0.312,0.022 0.3,0.022C0.291,0.022 0.282,0.02 0.274,0.015C0.266,0.009 0.258,0.003 0.252,-0.006C0.245,-0.014 0.24,-0.024 0.237,-0.034C0.233,-0.045 0.232,-0.055 0.232,-0.065C0.233,-0.07 0.234,-0.078 0.235,-0.089C0.208,-0.058 0.181,-0.034 0.153,-0.016C0.125,0.002 0.099,0.011 0.073,0.011C0.064,0.011 0.054,0.008 0.044,0.004C0.034,-0.001 0.024,-0.008 0.016,-0.019C0.008,-0.029 0.001,-0.043 -0.004,-0.06C-0.009,-0.076 -0.011,-0.097 -0.01,-0.121C-0.008,-0.159 -0,-0.195 0.013,-0.229C0.026,-0.262 0.042,-0.292 0.062,-0.317C0.082,-0.342 0.104,-0.362 0.129,-0.376C0.154,-0.391 0.18,-0.398 0.205,-0.398C0.216,-0.398 0.226,-0.396 0.235,-0.39C0.244,-0.385 0.252,-0.377 0.259,-0.369C0.265,-0.36 0.271,-0.35 0.275,-0.34C0.279,-0.329 0.282,-0.32 0.284,-0.311C0.289,-0.329 0.293,-0.348 0.297,-0.366C0.301,-0.384 0.305,-0.402 0.309,-0.418C0.315,-0.442 0.322,-0.468 0.329,-0.496C0.336,-0.52 0.343,-0.548 0.352,-0.579C0.36,-0.61 0.369,-0.643 0.38,-0.678C0.386,-0.683 0.393,-0.687 0.398,-0.689C0.404,-0.692 0.41,-0.694 0.415,-0.695C0.421,-0.697 0.426,-0.698 0.432,-0.698C0.438,-0.698 0.444,-0.697 0.449,-0.696C0.454,-0.694 0.459,-0.69 0.462,-0.683C0.466,-0.676 0.468,-0.666 0.47,-0.652C0.471,-0.639 0.471,-0.62 0.47,-0.597C0.468,-0.568 0.463,-0.537 0.455,-0.503C0.446,-0.469 0.434,-0.434 0.42,-0.398C0.406,-0.362 0.389,-0.326 0.371,-0.29C0.352,-0.253 0.332,-0.219 0.311,-0.187ZM0.253,-0.174C0.256,-0.186 0.258,-0.199 0.26,-0.211C0.263,-0.223 0.265,-0.236 0.269,-0.249L0.262,-0.245C0.255,-0.242 0.25,-0.242 0.247,-0.246C0.244,-0.249 0.243,-0.255 0.243,-0.263C0.243,-0.267 0.243,-0.274 0.242,-0.284C0.242,-0.294 0.24,-0.304 0.237,-0.315C0.234,-0.326 0.229,-0.335 0.224,-0.343C0.218,-0.351 0.21,-0.355 0.199,-0.355C0.184,-0.355 0.169,-0.348 0.153,-0.333C0.138,-0.317 0.123,-0.299 0.109,-0.277C0.096,-0.255 0.084,-0.232 0.075,-0.207C0.066,-0.182 0.061,-0.16 0.06,-0.141C0.058,-0.109 0.062,-0.087 0.071,-0.073C0.08,-0.06 0.093,-0.053 0.108,-0.053C0.12,-0.053 0.133,-0.057 0.147,-0.066C0.161,-0.076 0.175,-0.087 0.188,-0.1C0.201,-0.113 0.214,-0.126 0.225,-0.14C0.236,-0.153 0.246,-0.165 0.253,-0.174Z" style="fill:white;fill-rule:nonzero;"/>
            </g>
            <g transform="matrix(86.4995,0,0,86.4995,458.005,391.814)">
                <path d="M0.442,-0.203C0.423,-0.174 0.401,-0.147 0.376,-0.12C0.351,-0.093 0.325,-0.069 0.297,-0.047C0.27,-0.026 0.241,-0.009 0.212,0.004C0.183,0.017 0.155,0.023 0.128,0.023C0.114,0.023 0.098,0.02 0.082,0.013C0.065,0.006 0.05,-0.004 0.036,-0.019C0.022,-0.033 0.012,-0.051 0.003,-0.074C-0.005,-0.097 -0.007,-0.125 -0.004,-0.157C-0.001,-0.184 0.007,-0.212 0.021,-0.242C0.035,-0.271 0.052,-0.299 0.073,-0.323C0.093,-0.348 0.116,-0.368 0.142,-0.385C0.168,-0.401 0.194,-0.409 0.22,-0.409C0.244,-0.409 0.262,-0.403 0.273,-0.391C0.285,-0.378 0.289,-0.363 0.288,-0.345C0.286,-0.325 0.28,-0.306 0.271,-0.289C0.262,-0.272 0.25,-0.257 0.237,-0.243C0.224,-0.229 0.21,-0.217 0.196,-0.206C0.181,-0.195 0.167,-0.185 0.154,-0.176C0.14,-0.166 0.126,-0.157 0.113,-0.148C0.1,-0.139 0.089,-0.131 0.079,-0.124C0.08,-0.108 0.083,-0.094 0.088,-0.083C0.093,-0.072 0.1,-0.063 0.107,-0.056C0.115,-0.049 0.124,-0.044 0.134,-0.042C0.144,-0.039 0.155,-0.037 0.165,-0.037C0.187,-0.037 0.21,-0.044 0.234,-0.058C0.258,-0.072 0.282,-0.089 0.305,-0.109C0.328,-0.129 0.35,-0.149 0.37,-0.171C0.389,-0.192 0.406,-0.211 0.419,-0.227C0.424,-0.232 0.428,-0.235 0.433,-0.236C0.438,-0.237 0.442,-0.236 0.445,-0.234C0.448,-0.232 0.449,-0.228 0.449,-0.222C0.449,-0.217 0.447,-0.21 0.442,-0.203ZM0.192,-0.354C0.185,-0.354 0.175,-0.35 0.165,-0.342C0.154,-0.334 0.143,-0.323 0.133,-0.308C0.122,-0.293 0.113,-0.276 0.104,-0.254C0.094,-0.233 0.088,-0.209 0.083,-0.182C0.091,-0.188 0.099,-0.194 0.108,-0.2C0.118,-0.206 0.127,-0.213 0.136,-0.22C0.164,-0.241 0.183,-0.26 0.194,-0.276C0.205,-0.293 0.212,-0.307 0.213,-0.318C0.214,-0.331 0.213,-0.34 0.209,-0.345C0.205,-0.351 0.2,-0.354 0.192,-0.354Z" style="fill:white;fill-rule:nonzero;"/>
            </g>
            <g transform="matrix(86.4995,0,0,86.4995,490.189,391.814)">
                <path d="M0.311,-0.187C0.307,-0.166 0.304,-0.147 0.301,-0.129C0.298,-0.111 0.297,-0.096 0.296,-0.085C0.295,-0.069 0.298,-0.057 0.305,-0.05C0.311,-0.043 0.318,-0.039 0.326,-0.039C0.335,-0.039 0.347,-0.044 0.36,-0.053C0.373,-0.062 0.387,-0.073 0.402,-0.087C0.417,-0.101 0.432,-0.116 0.447,-0.132C0.462,-0.148 0.476,-0.164 0.489,-0.178C0.501,-0.193 0.512,-0.206 0.521,-0.217C0.53,-0.228 0.536,-0.235 0.539,-0.238C0.543,-0.242 0.547,-0.244 0.551,-0.245C0.556,-0.246 0.559,-0.245 0.562,-0.243C0.564,-0.241 0.565,-0.238 0.565,-0.232C0.565,-0.227 0.563,-0.221 0.558,-0.213C0.55,-0.201 0.54,-0.186 0.527,-0.169C0.515,-0.153 0.501,-0.136 0.486,-0.118C0.471,-0.101 0.456,-0.083 0.439,-0.066C0.422,-0.049 0.406,-0.035 0.389,-0.021C0.373,-0.008 0.357,0.002 0.341,0.01C0.326,0.018 0.312,0.022 0.3,0.022C0.291,0.022 0.282,0.02 0.274,0.015C0.266,0.009 0.258,0.003 0.252,-0.006C0.245,-0.014 0.24,-0.024 0.237,-0.034C0.233,-0.045 0.232,-0.055 0.232,-0.065C0.233,-0.07 0.234,-0.078 0.235,-0.089C0.208,-0.058 0.181,-0.034 0.153,-0.016C0.125,0.002 0.099,0.011 0.073,0.011C0.064,0.011 0.054,0.008 0.044,0.004C0.034,-0.001 0.024,-0.008 0.016,-0.019C0.008,-0.029 0.001,-0.043 -0.004,-0.06C-0.009,-0.076 -0.011,-0.097 -0.01,-0.121C-0.008,-0.159 -0,-0.195 0.013,-0.229C0.026,-0.262 0.042,-0.292 0.062,-0.317C0.082,-0.342 0.104,-0.362 0.129,-0.376C0.154,-0.391 0.18,-0.398 0.205,-0.398C0.216,-0.398 0.226,-0.396 0.235,-0.39C0.244,-0.385 0.252,-0.377 0.259,-0.369C0.265,-0.36 0.271,-0.35 0.275,-0.34C0.279,-0.329 0.282,-0.32 0.284,-0.311C0.289,-0.329 0.293,-0.348 0.297,-0.366C0.301,-0.384 0.305,-0.402 0.309,-0.418C0.315,-0.442 0.322,-0.468 0.329,-0.496C0.336,-0.52 0.343,-0.548 0.352,-0.579C0.36,-0.61 0.369,-0.643 0.38,-0.678C0.386,-0.683 0.393,-0.687 0.398,-0.689C0.404,-0.692 0.41,-0.694 0.415,-0.695C0.421,-0.697 0.426,-0.698 0.432,-0.698C0.438,-0.698 0.444,-0.697 0.449,-0.696C0.454,-0.694 0.459,-0.69 0.462,-0.683C0.466,-0.676 0.468,-0.666 0.47,-0.652C0.471,-0.639 0.471,-0.62 0.47,-0.597C0.468,-0.568 0.463,-0.537 0.455,-0.503C0.446,-0.469 0.434,-0.434 0.42,-0.398C0.406,-0.362 0.389,-0.326 0.371,-0.29C0.352,-0.253 0.332,-0.219 0.311,-0.187ZM0.253,-0.174C0.256,-0.186 0.258,-0.199 0.26,-0.211C0.263,-0.223 0.265,-0.236 0.269,-0.249L0.262,-0.245C0.255,-0.242 0.25,-0.242 0.247,-0.246C0.244,-0.249 0.243,-0.255 0.243,-0.263C0.243,-0.267 0.243,-0.274 0.242,-0.284C0.242,-0.294 0.24,-0.304 0.237,-0.315C0.234,-0.326 0.229,-0.335 0.224,-0.343C0.218,-0.351 0.21,-0.355 0.199,-0.355C0.184,-0.355 0.169,-0.348 0.153,-0.333C0.138,-0.317 0.123,-0.299 0.109,-0.277C0.096,-0.255 0.084,-0.232 0.075,-0.207C0.066,-0.182 0.061,-0.16 0.06,-0.141C0.058,-0.109 0.062,-0.087 0.071,-0.073C0.08,-0.06 0.093,-0.053 0.108,-0.053C0.12,-0.053 0.133,-0.057 0.147,-0.066C0.161,-0.076 0.175,-0.087 0.188,-0.1C0.201,-0.113 0.214,-0.126 0.225,-0.14C0.236,-0.153 0.246,-0.165 0.253,-0.174Z" style="fill:white;fill-rule:nonzero;"/>
            </g>
            <g transform="matrix(86.4995,0,0,86.4995,556.246,391.814)">
                <path d="M0.152,-0.461C0.149,-0.449 0.145,-0.432 0.14,-0.411C0.135,-0.389 0.13,-0.364 0.125,-0.336C0.119,-0.308 0.113,-0.278 0.107,-0.248C0.101,-0.217 0.095,-0.186 0.09,-0.156C0.085,-0.126 0.081,-0.098 0.077,-0.072C0.073,-0.045 0.071,-0.023 0.07,-0.005C0.07,0.015 0.07,0.035 0.07,0.055C0.071,0.072 0.072,0.089 0.074,0.108C0.075,0.126 0.078,0.143 0.083,0.157C0.072,0.162 0.062,0.166 0.054,0.168C0.045,0.171 0.038,0.173 0.033,0.174C0.027,0.175 0.021,0.176 0.017,0.176C0.011,0.176 0.005,0.175 -0.002,0.174C-0.009,0.173 -0.016,0.17 -0.021,0.164C-0.027,0.158 -0.032,0.149 -0.036,0.137C-0.04,0.124 -0.041,0.106 -0.04,0.083C-0.039,0.067 -0.037,0.048 -0.033,0.025C-0.028,0.002 -0.023,-0.024 -0.018,-0.051C-0.012,-0.079 -0.005,-0.108 0.002,-0.137C0.01,-0.167 0.017,-0.196 0.024,-0.224C0.032,-0.252 0.038,-0.279 0.044,-0.305C0.051,-0.33 0.056,-0.352 0.061,-0.37C0.066,-0.394 0.073,-0.421 0.08,-0.452C0.092,-0.506 0.111,-0.586 0.136,-0.692C0.14,-0.696 0.145,-0.699 0.15,-0.702C0.156,-0.705 0.16,-0.707 0.164,-0.709C0.169,-0.712 0.173,-0.714 0.178,-0.715C0.199,-0.723 0.213,-0.724 0.222,-0.718C0.231,-0.712 0.236,-0.7 0.237,-0.683C0.238,-0.671 0.239,-0.654 0.242,-0.632C0.244,-0.61 0.246,-0.585 0.248,-0.558C0.25,-0.53 0.252,-0.502 0.253,-0.473C0.254,-0.444 0.255,-0.417 0.255,-0.393C0.255,-0.376 0.255,-0.357 0.256,-0.335C0.257,-0.313 0.257,-0.289 0.259,-0.265C0.26,-0.24 0.262,-0.215 0.264,-0.189C0.266,-0.163 0.268,-0.139 0.271,-0.115C0.273,-0.092 0.276,-0.07 0.279,-0.051C0.282,-0.031 0.285,-0.015 0.288,-0.003C0.289,0.002 0.291,0.007 0.292,0.012C0.294,0.016 0.296,0.021 0.297,0.025C0.301,0.01 0.305,-0.009 0.31,-0.03C0.315,-0.052 0.32,-0.075 0.326,-0.099C0.331,-0.124 0.337,-0.149 0.342,-0.174C0.347,-0.2 0.352,-0.224 0.355,-0.247C0.359,-0.265 0.362,-0.289 0.366,-0.317C0.37,-0.346 0.375,-0.377 0.38,-0.41C0.373,-0.413 0.366,-0.415 0.359,-0.418C0.354,-0.421 0.348,-0.424 0.342,-0.428C0.336,-0.432 0.331,-0.436 0.327,-0.441C0.328,-0.45 0.329,-0.456 0.33,-0.46C0.331,-0.464 0.334,-0.464 0.339,-0.461C0.343,-0.459 0.349,-0.457 0.357,-0.454C0.365,-0.451 0.375,-0.45 0.386,-0.448C0.389,-0.466 0.393,-0.485 0.397,-0.503C0.401,-0.521 0.406,-0.539 0.41,-0.556C0.417,-0.584 0.425,-0.609 0.435,-0.631C0.444,-0.654 0.454,-0.673 0.466,-0.688C0.478,-0.704 0.493,-0.716 0.509,-0.725C0.525,-0.733 0.544,-0.738 0.565,-0.738C0.586,-0.738 0.602,-0.73 0.615,-0.713C0.627,-0.697 0.633,-0.668 0.631,-0.627C0.63,-0.596 0.623,-0.569 0.612,-0.544C0.6,-0.52 0.587,-0.499 0.57,-0.48C0.554,-0.461 0.536,-0.446 0.517,-0.434C0.497,-0.422 0.479,-0.413 0.461,-0.408C0.455,-0.378 0.45,-0.347 0.444,-0.316C0.439,-0.285 0.434,-0.255 0.429,-0.226C0.424,-0.197 0.419,-0.17 0.415,-0.144C0.41,-0.118 0.405,-0.094 0.4,-0.074C0.396,-0.055 0.391,-0.034 0.386,-0.011C0.381,0.009 0.376,0.031 0.369,0.057C0.363,0.082 0.356,0.109 0.349,0.137C0.346,0.143 0.343,0.148 0.339,0.152C0.335,0.156 0.331,0.16 0.327,0.162C0.323,0.165 0.318,0.168 0.313,0.17C0.3,0.175 0.289,0.176 0.28,0.173C0.271,0.17 0.263,0.161 0.256,0.146C0.249,0.132 0.242,0.113 0.237,0.091C0.231,0.069 0.226,0.045 0.22,0.019C0.214,-0.009 0.209,-0.04 0.207,-0.073C0.204,-0.106 0.201,-0.139 0.2,-0.173C0.198,-0.208 0.197,-0.242 0.196,-0.275C0.196,-0.309 0.194,-0.341 0.192,-0.371C0.189,-0.41 0.186,-0.445 0.183,-0.476C0.179,-0.507 0.176,-0.533 0.172,-0.555C0.169,-0.542 0.166,-0.527 0.163,-0.511C0.16,-0.494 0.156,-0.478 0.152,-0.461ZM0.48,-0.502C0.477,-0.49 0.475,-0.478 0.473,-0.467C0.488,-0.476 0.503,-0.487 0.517,-0.501C0.53,-0.515 0.542,-0.53 0.552,-0.546C0.562,-0.562 0.569,-0.577 0.575,-0.593C0.58,-0.608 0.583,-0.623 0.584,-0.636C0.585,-0.645 0.584,-0.652 0.582,-0.658C0.579,-0.663 0.575,-0.666 0.569,-0.666C0.566,-0.666 0.561,-0.664 0.554,-0.661C0.547,-0.657 0.54,-0.65 0.531,-0.638C0.523,-0.627 0.514,-0.61 0.505,-0.589C0.497,-0.567 0.488,-0.538 0.48,-0.502Z" style="fill:white;fill-rule:nonzero;"/>
            </g>
            <g transform="matrix(86.4995,0,0,86.4995,603.044,391.814)">
                <path d="M0.215,-0.575C0.213,-0.568 0.209,-0.561 0.204,-0.554C0.198,-0.547 0.192,-0.542 0.185,-0.538C0.178,-0.533 0.171,-0.531 0.164,-0.529C0.157,-0.528 0.151,-0.529 0.146,-0.533C0.133,-0.544 0.126,-0.555 0.125,-0.567C0.124,-0.579 0.127,-0.59 0.134,-0.601C0.14,-0.612 0.148,-0.621 0.158,-0.628C0.168,-0.636 0.176,-0.64 0.184,-0.642C0.191,-0.643 0.197,-0.641 0.202,-0.637C0.207,-0.633 0.21,-0.627 0.213,-0.621C0.215,-0.614 0.217,-0.606 0.217,-0.598C0.218,-0.589 0.217,-0.582 0.215,-0.575ZM0.08,-0.367C0.083,-0.371 0.09,-0.374 0.099,-0.377C0.108,-0.38 0.117,-0.382 0.127,-0.383C0.137,-0.385 0.146,-0.386 0.154,-0.386C0.162,-0.387 0.167,-0.386 0.168,-0.386C0.169,-0.385 0.167,-0.378 0.163,-0.365C0.159,-0.352 0.154,-0.337 0.148,-0.319C0.143,-0.302 0.136,-0.284 0.13,-0.265C0.123,-0.247 0.118,-0.231 0.115,-0.22C0.112,-0.208 0.108,-0.195 0.104,-0.18C0.099,-0.166 0.095,-0.151 0.091,-0.137C0.088,-0.123 0.085,-0.11 0.084,-0.098C0.083,-0.085 0.084,-0.076 0.087,-0.069C0.09,-0.062 0.094,-0.056 0.098,-0.053C0.102,-0.05 0.106,-0.049 0.11,-0.049C0.123,-0.049 0.14,-0.056 0.16,-0.07C0.18,-0.085 0.2,-0.102 0.22,-0.122C0.241,-0.141 0.26,-0.162 0.277,-0.182C0.295,-0.203 0.308,-0.219 0.316,-0.231C0.322,-0.238 0.327,-0.242 0.333,-0.244C0.338,-0.246 0.343,-0.246 0.346,-0.243C0.35,-0.241 0.352,-0.236 0.352,-0.23C0.352,-0.225 0.35,-0.218 0.346,-0.21C0.335,-0.192 0.32,-0.17 0.3,-0.145C0.28,-0.12 0.258,-0.096 0.235,-0.073C0.213,-0.05 0.19,-0.03 0.168,-0.014C0.147,0.003 0.129,0.011 0.115,0.012C0.104,0.012 0.093,0.011 0.083,0.006C0.072,0.002 0.062,-0.004 0.053,-0.011C0.044,-0.019 0.037,-0.028 0.031,-0.038C0.025,-0.048 0.022,-0.058 0.021,-0.069C0.02,-0.086 0.02,-0.108 0.021,-0.136C0.023,-0.165 0.027,-0.194 0.032,-0.223C0.037,-0.253 0.044,-0.281 0.052,-0.308C0.06,-0.334 0.07,-0.354 0.08,-0.367Z" style="fill:white;fill-rule:nonzero;"/>
            </g>
            <g transform="matrix(86.4995,0,0,86.4995,626.78,391.814)">
                <path d="M0.258,0.14C0.255,0.155 0.25,0.175 0.246,0.198C0.241,0.222 0.235,0.246 0.229,0.272C0.223,0.299 0.216,0.324 0.208,0.35C0.199,0.376 0.19,0.399 0.181,0.419C0.171,0.44 0.16,0.457 0.148,0.47C0.137,0.483 0.124,0.489 0.109,0.489C0.088,0.489 0.069,0.483 0.054,0.47C0.039,0.458 0.026,0.442 0.016,0.422C0.005,0.403 -0.002,0.382 -0.007,0.36C-0.012,0.338 -0.015,0.318 -0.015,0.299C-0.015,0.273 -0.012,0.251 -0.008,0.234C-0.003,0.217 0.005,0.2 0.016,0.185C0.028,0.169 0.043,0.152 0.063,0.135C0.082,0.117 0.107,0.095 0.138,0.069C0.153,0.056 0.167,0.044 0.181,0.032C0.194,0.021 0.207,0.01 0.22,-0C0.223,-0.013 0.226,-0.025 0.229,-0.037C0.232,-0.048 0.234,-0.058 0.236,-0.067C0.219,-0.045 0.199,-0.025 0.175,-0.01C0.152,0.006 0.124,0.014 0.094,0.014C0.066,0.014 0.043,0.001 0.026,-0.024C0.009,-0.049 0,-0.086 0,-0.135C0,-0.159 0.005,-0.187 0.014,-0.218C0.023,-0.249 0.036,-0.278 0.053,-0.306C0.07,-0.333 0.09,-0.356 0.115,-0.375C0.14,-0.394 0.168,-0.403 0.198,-0.403C0.213,-0.403 0.225,-0.4 0.235,-0.393C0.246,-0.385 0.255,-0.376 0.262,-0.366C0.269,-0.355 0.274,-0.344 0.278,-0.332C0.282,-0.319 0.285,-0.308 0.287,-0.298C0.288,-0.302 0.289,-0.306 0.29,-0.31C0.291,-0.314 0.292,-0.318 0.293,-0.321C0.299,-0.343 0.307,-0.359 0.315,-0.367C0.323,-0.375 0.335,-0.379 0.352,-0.379C0.361,-0.379 0.368,-0.377 0.375,-0.374C0.381,-0.371 0.384,-0.368 0.384,-0.365L0.37,-0.336C0.368,-0.332 0.366,-0.327 0.364,-0.32C0.362,-0.314 0.36,-0.304 0.356,-0.292C0.355,-0.287 0.353,-0.277 0.349,-0.26C0.346,-0.244 0.341,-0.224 0.335,-0.201C0.33,-0.178 0.324,-0.153 0.318,-0.126C0.312,-0.099 0.306,-0.072 0.3,-0.046C0.318,-0.056 0.337,-0.069 0.356,-0.084C0.376,-0.099 0.395,-0.114 0.412,-0.13C0.43,-0.146 0.445,-0.16 0.459,-0.174C0.473,-0.188 0.483,-0.2 0.489,-0.209C0.494,-0.217 0.5,-0.222 0.507,-0.226C0.513,-0.229 0.519,-0.23 0.524,-0.229C0.529,-0.228 0.532,-0.225 0.533,-0.22C0.534,-0.215 0.532,-0.209 0.526,-0.2C0.511,-0.176 0.493,-0.153 0.472,-0.13C0.45,-0.108 0.428,-0.087 0.406,-0.068C0.383,-0.049 0.361,-0.032 0.34,-0.017C0.319,-0.002 0.301,0.009 0.286,0.019C0.28,0.048 0.274,0.072 0.27,0.09C0.265,0.108 0.261,0.125 0.258,0.14ZM0.135,-0.053C0.148,-0.053 0.161,-0.056 0.173,-0.063C0.185,-0.071 0.196,-0.079 0.206,-0.088C0.216,-0.098 0.224,-0.107 0.23,-0.117C0.237,-0.127 0.242,-0.135 0.245,-0.141C0.248,-0.146 0.251,-0.154 0.254,-0.164C0.258,-0.174 0.261,-0.183 0.263,-0.192C0.265,-0.201 0.265,-0.21 0.265,-0.217C0.265,-0.224 0.262,-0.228 0.258,-0.229C0.254,-0.229 0.251,-0.232 0.249,-0.236C0.246,-0.241 0.244,-0.246 0.243,-0.252C0.242,-0.258 0.241,-0.264 0.241,-0.27C0.24,-0.275 0.24,-0.281 0.239,-0.285C0.236,-0.308 0.23,-0.325 0.223,-0.335C0.215,-0.345 0.206,-0.351 0.196,-0.351C0.18,-0.351 0.165,-0.344 0.15,-0.331C0.135,-0.318 0.122,-0.301 0.111,-0.281C0.099,-0.26 0.09,-0.238 0.084,-0.213C0.077,-0.189 0.074,-0.166 0.074,-0.144C0.074,-0.116 0.078,-0.094 0.086,-0.078C0.094,-0.061 0.11,-0.053 0.135,-0.053ZM0.09,0.4C0.103,0.4 0.113,0.391 0.122,0.372C0.13,0.352 0.138,0.326 0.147,0.293C0.149,0.285 0.152,0.274 0.156,0.259C0.159,0.245 0.164,0.228 0.168,0.209C0.173,0.19 0.178,0.17 0.184,0.148C0.189,0.126 0.194,0.104 0.2,0.082C0.195,0.087 0.19,0.091 0.184,0.096C0.179,0.101 0.173,0.107 0.167,0.113C0.153,0.127 0.139,0.14 0.125,0.153C0.112,0.166 0.1,0.179 0.09,0.193C0.079,0.207 0.071,0.222 0.065,0.238C0.059,0.255 0.056,0.273 0.056,0.295C0.056,0.316 0.056,0.334 0.058,0.348C0.06,0.361 0.062,0.372 0.065,0.38C0.068,0.388 0.071,0.393 0.076,0.396C0.08,0.399 0.085,0.4 0.09,0.4Z" style="fill:white;fill-rule:nonzero;"/>
            </g>
            <g transform="matrix(86.4995,0,0,86.4995,666.567,391.814)">
                <path d="M0.504,-0.215C0.508,-0.22 0.513,-0.223 0.518,-0.223C0.523,-0.223 0.527,-0.222 0.53,-0.219C0.533,-0.216 0.534,-0.212 0.534,-0.206C0.533,-0.2 0.531,-0.194 0.525,-0.187C0.513,-0.17 0.499,-0.152 0.482,-0.134C0.466,-0.116 0.449,-0.099 0.43,-0.082C0.412,-0.065 0.393,-0.049 0.374,-0.034C0.355,-0.019 0.337,-0.007 0.319,0.003C0.3,0.014 0.283,0.02 0.27,0.02C0.257,0.02 0.243,0.011 0.23,-0.006C0.219,-0.021 0.213,-0.037 0.213,-0.054C0.214,-0.071 0.217,-0.093 0.225,-0.119C0.229,-0.135 0.236,-0.155 0.244,-0.177C0.252,-0.2 0.258,-0.221 0.263,-0.242C0.268,-0.263 0.27,-0.281 0.268,-0.295C0.266,-0.31 0.257,-0.317 0.242,-0.317C0.232,-0.317 0.221,-0.314 0.208,-0.307C0.196,-0.299 0.184,-0.29 0.172,-0.279C0.16,-0.267 0.149,-0.255 0.138,-0.24C0.127,-0.226 0.117,-0.212 0.108,-0.198C0.103,-0.173 0.098,-0.148 0.093,-0.123C0.088,-0.102 0.083,-0.08 0.079,-0.055C0.074,-0.031 0.069,-0.009 0.064,0.01C0.061,0.013 0.056,0.015 0.052,0.017C0.047,0.018 0.043,0.019 0.039,0.019C0.035,0.019 0.03,0.018 0.025,0.018C0.02,0.016 0.015,0.014 0.011,0.012C0.007,0.009 0.003,0.006 -0.001,0.001C-0.005,-0.003 -0.008,-0.008 -0.01,-0.016C0.02,-0.136 0.043,-0.233 0.06,-0.306C0.076,-0.379 0.09,-0.434 0.099,-0.473C0.109,-0.518 0.116,-0.55 0.12,-0.567C0.122,-0.58 0.124,-0.592 0.125,-0.604C0.126,-0.614 0.127,-0.625 0.127,-0.636C0.127,-0.647 0.126,-0.657 0.124,-0.666C0.129,-0.669 0.135,-0.672 0.141,-0.674C0.147,-0.676 0.153,-0.677 0.159,-0.679C0.166,-0.681 0.174,-0.682 0.181,-0.684C0.188,-0.685 0.194,-0.686 0.2,-0.686C0.205,-0.686 0.21,-0.685 0.215,-0.684C0.219,-0.683 0.222,-0.681 0.224,-0.678C0.228,-0.674 0.229,-0.668 0.229,-0.658C0.229,-0.648 0.228,-0.638 0.227,-0.628C0.224,-0.616 0.221,-0.602 0.218,-0.588C0.204,-0.535 0.189,-0.484 0.172,-0.434C0.155,-0.384 0.139,-0.331 0.125,-0.274C0.133,-0.287 0.144,-0.301 0.155,-0.314C0.167,-0.328 0.18,-0.341 0.194,-0.352C0.208,-0.363 0.223,-0.373 0.238,-0.38C0.254,-0.388 0.271,-0.392 0.288,-0.392C0.297,-0.392 0.306,-0.39 0.314,-0.387C0.322,-0.384 0.329,-0.379 0.335,-0.373C0.342,-0.366 0.346,-0.357 0.35,-0.345C0.353,-0.334 0.354,-0.32 0.354,-0.303C0.354,-0.292 0.352,-0.282 0.35,-0.271C0.348,-0.259 0.345,-0.247 0.341,-0.234C0.337,-0.221 0.332,-0.206 0.326,-0.189C0.319,-0.173 0.312,-0.154 0.304,-0.133C0.298,-0.118 0.293,-0.105 0.29,-0.095C0.287,-0.084 0.287,-0.075 0.292,-0.067C0.298,-0.057 0.309,-0.055 0.327,-0.06C0.344,-0.066 0.37,-0.082 0.404,-0.11C0.412,-0.117 0.421,-0.125 0.431,-0.135C0.44,-0.145 0.45,-0.154 0.459,-0.165C0.468,-0.175 0.477,-0.184 0.484,-0.193C0.492,-0.202 0.499,-0.21 0.504,-0.215Z" style="fill:white;fill-rule:nonzero;"/>
            </g>
            <g transform="matrix(86.4995,0,0,86.4995,706.86,391.814)">
                <path d="M0.36,-0.247C0.363,-0.251 0.366,-0.253 0.371,-0.254C0.375,-0.255 0.378,-0.255 0.381,-0.253C0.383,-0.251 0.385,-0.248 0.385,-0.243C0.386,-0.239 0.384,-0.232 0.38,-0.225C0.367,-0.2 0.35,-0.173 0.329,-0.145C0.307,-0.116 0.285,-0.089 0.262,-0.064C0.238,-0.039 0.215,-0.018 0.193,-0.002C0.171,0.014 0.153,0.022 0.138,0.022C0.116,0.022 0.098,0.018 0.084,0.01C0.07,0.001 0.058,-0.009 0.05,-0.021C0.042,-0.034 0.036,-0.047 0.033,-0.062C0.03,-0.077 0.029,-0.09 0.03,-0.103C0.031,-0.113 0.033,-0.132 0.037,-0.159C0.041,-0.186 0.046,-0.217 0.053,-0.252C0.059,-0.288 0.067,-0.326 0.075,-0.367C0.083,-0.407 0.091,-0.447 0.101,-0.484C0.09,-0.483 0.078,-0.482 0.067,-0.48C0.056,-0.479 0.046,-0.479 0.037,-0.479C0.016,-0.479 -0.003,-0.481 -0.022,-0.486C-0.041,-0.491 -0.054,-0.495 -0.063,-0.5C-0.069,-0.503 -0.071,-0.506 -0.07,-0.511C-0.07,-0.516 -0.068,-0.521 -0.064,-0.526C-0.061,-0.531 -0.057,-0.535 -0.052,-0.539C-0.047,-0.542 -0.043,-0.544 -0.039,-0.544C-0.027,-0.543 -0.013,-0.542 0.001,-0.541C0.015,-0.54 0.031,-0.539 0.048,-0.54C0.06,-0.541 0.072,-0.542 0.083,-0.543C0.095,-0.544 0.106,-0.546 0.117,-0.548C0.126,-0.579 0.134,-0.606 0.142,-0.629C0.15,-0.653 0.158,-0.669 0.164,-0.678C0.166,-0.681 0.17,-0.684 0.177,-0.686C0.184,-0.688 0.191,-0.69 0.199,-0.691C0.207,-0.692 0.215,-0.692 0.222,-0.691C0.229,-0.69 0.234,-0.688 0.237,-0.684C0.241,-0.678 0.242,-0.665 0.241,-0.644C0.241,-0.622 0.237,-0.595 0.23,-0.562C0.258,-0.562 0.282,-0.56 0.303,-0.557C0.324,-0.554 0.342,-0.551 0.357,-0.547C0.372,-0.544 0.384,-0.54 0.394,-0.537C0.403,-0.533 0.41,-0.531 0.414,-0.529C0.419,-0.528 0.421,-0.525 0.421,-0.52C0.422,-0.514 0.421,-0.509 0.418,-0.503C0.416,-0.498 0.412,-0.493 0.407,-0.489C0.402,-0.485 0.396,-0.484 0.39,-0.485C0.383,-0.486 0.376,-0.487 0.368,-0.489C0.36,-0.491 0.35,-0.493 0.338,-0.494C0.327,-0.495 0.313,-0.497 0.298,-0.498C0.282,-0.499 0.264,-0.5 0.243,-0.5L0.215,-0.499C0.212,-0.489 0.21,-0.478 0.208,-0.468C0.205,-0.458 0.202,-0.448 0.198,-0.437C0.19,-0.41 0.18,-0.382 0.169,-0.352C0.159,-0.325 0.147,-0.294 0.134,-0.26C0.12,-0.225 0.105,-0.188 0.088,-0.149C0.084,-0.121 0.084,-0.1 0.089,-0.085C0.094,-0.071 0.1,-0.06 0.107,-0.054C0.116,-0.047 0.126,-0.043 0.139,-0.042C0.148,-0.041 0.16,-0.044 0.174,-0.052C0.188,-0.06 0.203,-0.071 0.218,-0.085C0.233,-0.099 0.248,-0.114 0.263,-0.13C0.278,-0.146 0.293,-0.162 0.306,-0.178C0.319,-0.193 0.33,-0.208 0.34,-0.22C0.35,-0.233 0.356,-0.242 0.36,-0.247Z" style="fill:white;fill-rule:nonzero;"/>
            </g>
            <g transform="matrix(86.4995,0,0,86.4995,757.205,391.814)">
                <path d="M0.21,0.182C0.177,0.182 0.148,0.174 0.122,0.158C0.095,0.143 0.073,0.121 0.054,0.094C0.036,0.066 0.022,0.034 0.012,-0.002C0.003,-0.039 -0.001,-0.078 0,-0.12C0.001,-0.159 0.006,-0.201 0.015,-0.247C0.024,-0.293 0.036,-0.338 0.053,-0.384C0.069,-0.43 0.089,-0.474 0.112,-0.517C0.135,-0.56 0.161,-0.597 0.191,-0.63C0.221,-0.662 0.255,-0.689 0.291,-0.708C0.327,-0.728 0.368,-0.738 0.411,-0.738C0.438,-0.738 0.46,-0.733 0.479,-0.722C0.498,-0.711 0.513,-0.697 0.524,-0.68C0.535,-0.662 0.543,-0.642 0.548,-0.62C0.552,-0.598 0.554,-0.576 0.554,-0.553C0.552,-0.531 0.549,-0.51 0.544,-0.49C0.54,-0.47 0.533,-0.452 0.524,-0.436C0.515,-0.42 0.504,-0.407 0.492,-0.398C0.479,-0.389 0.465,-0.384 0.448,-0.384C0.44,-0.384 0.433,-0.387 0.426,-0.392C0.419,-0.396 0.413,-0.401 0.406,-0.409C0.399,-0.417 0.393,-0.428 0.387,-0.443C0.404,-0.451 0.418,-0.463 0.428,-0.481C0.438,-0.499 0.446,-0.518 0.451,-0.537C0.457,-0.559 0.461,-0.584 0.463,-0.611C0.464,-0.638 0.459,-0.658 0.446,-0.67C0.434,-0.682 0.42,-0.688 0.404,-0.688C0.374,-0.688 0.341,-0.673 0.308,-0.641C0.274,-0.609 0.242,-0.566 0.213,-0.511C0.184,-0.457 0.16,-0.394 0.14,-0.321C0.12,-0.249 0.109,-0.173 0.105,-0.092C0.104,-0.055 0.107,-0.024 0.113,0.001C0.119,0.026 0.128,0.047 0.139,0.063C0.151,0.08 0.163,0.091 0.178,0.099C0.192,0.106 0.206,0.109 0.221,0.109C0.243,0.109 0.265,0.104 0.285,0.095C0.305,0.085 0.324,0.073 0.34,0.059C0.357,0.044 0.371,0.029 0.383,0.014C0.395,-0.001 0.405,-0.015 0.411,-0.026C0.416,-0.035 0.421,-0.04 0.426,-0.042C0.431,-0.044 0.436,-0.043 0.439,-0.041C0.443,-0.038 0.446,-0.033 0.447,-0.027C0.449,-0.021 0.447,-0.013 0.443,-0.005C0.432,0.017 0.419,0.039 0.403,0.062C0.387,0.084 0.369,0.104 0.349,0.122C0.329,0.139 0.308,0.154 0.284,0.165C0.261,0.176 0.236,0.182 0.21,0.182Z" style="fill:white;fill-rule:nonzero;"/>
            </g>
            <g transform="matrix(86.4995,0,0,86.4995,804.679,391.814)">
                <path d="M0.289,-0.155C0.283,-0.131 0.274,-0.107 0.263,-0.086C0.252,-0.064 0.238,-0.046 0.223,-0.03C0.208,-0.015 0.191,-0.002 0.171,0.006C0.152,0.015 0.131,0.02 0.108,0.02C0.082,0.02 0.061,0.014 0.045,0.002C0.03,-0.009 0.019,-0.023 0.011,-0.04C0.004,-0.057 -0.001,-0.076 -0.002,-0.096C-0.004,-0.116 -0.005,-0.135 -0.005,-0.152C-0.005,-0.165 -0.003,-0.178 -0,-0.193C0.002,-0.208 0.007,-0.224 0.012,-0.239C0.017,-0.255 0.024,-0.271 0.032,-0.286C0.04,-0.302 0.049,-0.316 0.061,-0.329C0.064,-0.34 0.07,-0.35 0.079,-0.358C0.087,-0.367 0.096,-0.374 0.107,-0.379C0.118,-0.385 0.129,-0.389 0.142,-0.392C0.154,-0.395 0.166,-0.396 0.178,-0.396C0.18,-0.396 0.181,-0.396 0.183,-0.396C0.185,-0.395 0.187,-0.394 0.188,-0.394C0.197,-0.393 0.208,-0.39 0.22,-0.384C0.233,-0.378 0.245,-0.369 0.257,-0.357C0.269,-0.346 0.28,-0.331 0.288,-0.313C0.297,-0.295 0.301,-0.273 0.301,-0.248C0.301,-0.243 0.3,-0.236 0.3,-0.229C0.299,-0.222 0.299,-0.215 0.298,-0.21C0.313,-0.216 0.328,-0.223 0.345,-0.231C0.361,-0.24 0.377,-0.249 0.392,-0.258C0.407,-0.268 0.422,-0.277 0.435,-0.287C0.448,-0.297 0.458,-0.306 0.466,-0.313C0.472,-0.319 0.478,-0.323 0.482,-0.323C0.487,-0.324 0.49,-0.323 0.492,-0.319C0.494,-0.316 0.494,-0.312 0.493,-0.306C0.492,-0.3 0.488,-0.293 0.482,-0.286C0.479,-0.282 0.471,-0.274 0.458,-0.263C0.444,-0.251 0.428,-0.238 0.41,-0.225C0.392,-0.211 0.372,-0.198 0.351,-0.185C0.329,-0.172 0.309,-0.162 0.289,-0.155ZM0.124,-0.304C0.122,-0.298 0.121,-0.292 0.121,-0.285C0.121,-0.275 0.122,-0.264 0.123,-0.252C0.124,-0.241 0.128,-0.231 0.133,-0.222C0.138,-0.213 0.146,-0.205 0.158,-0.199C0.169,-0.193 0.185,-0.189 0.205,-0.189C0.208,-0.189 0.212,-0.19 0.215,-0.19C0.218,-0.19 0.221,-0.191 0.225,-0.191C0.227,-0.2 0.228,-0.208 0.23,-0.214C0.232,-0.221 0.232,-0.227 0.232,-0.232C0.234,-0.245 0.234,-0.257 0.232,-0.271C0.231,-0.284 0.229,-0.295 0.225,-0.306C0.222,-0.317 0.217,-0.326 0.211,-0.333C0.206,-0.339 0.199,-0.343 0.191,-0.343C0.179,-0.343 0.167,-0.339 0.156,-0.333C0.144,-0.326 0.134,-0.316 0.124,-0.304ZM0.062,-0.132C0.062,-0.12 0.062,-0.109 0.063,-0.097C0.065,-0.086 0.067,-0.076 0.071,-0.067C0.075,-0.058 0.08,-0.051 0.087,-0.045C0.093,-0.04 0.102,-0.037 0.112,-0.037C0.124,-0.037 0.135,-0.04 0.145,-0.045C0.154,-0.051 0.163,-0.058 0.171,-0.067C0.179,-0.076 0.186,-0.086 0.192,-0.097C0.198,-0.109 0.203,-0.12 0.208,-0.133C0.203,-0.132 0.199,-0.132 0.195,-0.131C0.191,-0.131 0.186,-0.131 0.181,-0.131C0.156,-0.131 0.135,-0.138 0.117,-0.153C0.099,-0.167 0.085,-0.186 0.075,-0.209C0.071,-0.195 0.068,-0.182 0.065,-0.169C0.063,-0.156 0.062,-0.144 0.062,-0.132Z" style="fill:white;fill-rule:nonzero;"/>
            </g>
            <g transform="matrix(86.4995,0,0,86.4995,838.721,391.814)">
                <path d="M0.455,-0.045C0.455,-0.059 0.457,-0.074 0.459,-0.092C0.462,-0.109 0.466,-0.127 0.471,-0.146C0.475,-0.165 0.48,-0.183 0.484,-0.2C0.489,-0.218 0.493,-0.233 0.496,-0.247C0.5,-0.264 0.5,-0.277 0.495,-0.286C0.491,-0.295 0.483,-0.3 0.472,-0.3C0.466,-0.3 0.456,-0.295 0.441,-0.286C0.426,-0.277 0.409,-0.261 0.391,-0.239C0.373,-0.216 0.356,-0.186 0.338,-0.148C0.321,-0.11 0.308,-0.062 0.298,-0.003C0.285,0.004 0.274,0.008 0.263,0.01C0.257,0.011 0.252,0.012 0.247,0.013C0.234,0.013 0.226,0.011 0.222,0.006C0.218,0.001 0.218,-0.01 0.224,-0.029C0.226,-0.038 0.231,-0.053 0.238,-0.073C0.245,-0.093 0.251,-0.115 0.258,-0.139C0.264,-0.163 0.27,-0.187 0.275,-0.21C0.28,-0.234 0.282,-0.255 0.282,-0.272C0.282,-0.285 0.28,-0.293 0.276,-0.298C0.272,-0.302 0.266,-0.305 0.258,-0.305C0.252,-0.305 0.242,-0.301 0.229,-0.295C0.215,-0.288 0.2,-0.276 0.183,-0.257C0.166,-0.238 0.149,-0.212 0.132,-0.178C0.116,-0.145 0.102,-0.101 0.09,-0.048L0.09,-0.05C0.089,-0.045 0.087,-0.039 0.086,-0.034L0.08,-0.005L0.031,0.017C0.028,0.018 0.024,0.019 0.019,0.02C0.014,0.02 0.01,0.019 0.005,0.017C0.001,0.015 -0.002,0.01 -0.004,0.003C-0.006,-0.004 -0.005,-0.015 -0.002,-0.029L0.06,-0.284C0.062,-0.293 0.063,-0.301 0.064,-0.309C0.066,-0.316 0.067,-0.323 0.067,-0.33C0.067,-0.336 0.067,-0.342 0.065,-0.347C0.076,-0.352 0.086,-0.356 0.095,-0.358C0.103,-0.361 0.11,-0.363 0.115,-0.364C0.122,-0.366 0.127,-0.367 0.132,-0.367C0.153,-0.367 0.16,-0.349 0.152,-0.313C0.15,-0.303 0.146,-0.288 0.141,-0.268C0.153,-0.283 0.166,-0.298 0.18,-0.312C0.194,-0.326 0.208,-0.339 0.223,-0.35C0.237,-0.361 0.251,-0.369 0.266,-0.376C0.281,-0.382 0.295,-0.386 0.31,-0.386C0.321,-0.386 0.33,-0.382 0.337,-0.376C0.345,-0.369 0.351,-0.361 0.355,-0.35C0.359,-0.339 0.362,-0.327 0.362,-0.312C0.363,-0.297 0.362,-0.282 0.36,-0.267C0.371,-0.28 0.382,-0.294 0.395,-0.308C0.408,-0.322 0.421,-0.335 0.435,-0.346C0.449,-0.357 0.464,-0.366 0.479,-0.373C0.493,-0.38 0.508,-0.384 0.523,-0.384C0.541,-0.384 0.555,-0.379 0.564,-0.368C0.573,-0.358 0.58,-0.344 0.583,-0.328C0.587,-0.312 0.588,-0.294 0.586,-0.275C0.585,-0.257 0.582,-0.238 0.578,-0.221L0.545,-0.089C0.538,-0.056 0.545,-0.04 0.565,-0.04C0.582,-0.04 0.6,-0.048 0.619,-0.063C0.639,-0.079 0.658,-0.098 0.676,-0.119C0.695,-0.141 0.712,-0.163 0.729,-0.186C0.745,-0.208 0.758,-0.227 0.77,-0.24C0.773,-0.245 0.778,-0.247 0.782,-0.248C0.786,-0.249 0.79,-0.248 0.792,-0.246C0.795,-0.243 0.797,-0.24 0.797,-0.234C0.798,-0.229 0.796,-0.223 0.792,-0.215C0.779,-0.192 0.763,-0.167 0.744,-0.139C0.725,-0.111 0.705,-0.086 0.682,-0.062C0.66,-0.037 0.636,-0.017 0.61,-0.001C0.585,0.015 0.559,0.023 0.531,0.023C0.522,0.023 0.513,0.022 0.504,0.021C0.496,0.019 0.487,0.015 0.48,0.01C0.472,0.005 0.466,-0.002 0.462,-0.011C0.457,-0.02 0.455,-0.031 0.455,-0.045Z" style="fill:white;fill-rule:nonzero;"/>
            </g>
            <g transform="matrix(86.4995,0,0,86.4995,900.808,391.814)">
                <path d="M-0.07,0.417C-0.075,0.415 -0.079,0.412 -0.084,0.408C-0.088,0.405 -0.092,0.401 -0.096,0.396C-0.1,0.391 -0.103,0.385 -0.105,0.378C-0.087,0.308 -0.072,0.248 -0.059,0.196C-0.046,0.145 -0.035,0.102 -0.026,0.067C-0.017,0.027 -0.008,-0.007 -0.001,-0.034C0.006,-0.06 0.012,-0.086 0.019,-0.112C0.024,-0.135 0.029,-0.16 0.036,-0.186C0.042,-0.212 0.048,-0.236 0.053,-0.259C0.059,-0.284 0.063,-0.305 0.064,-0.32C0.066,-0.335 0.061,-0.348 0.05,-0.359C0.058,-0.366 0.066,-0.371 0.074,-0.375C0.082,-0.378 0.089,-0.381 0.096,-0.382C0.103,-0.384 0.11,-0.384 0.117,-0.384C0.135,-0.382 0.146,-0.377 0.15,-0.367C0.154,-0.357 0.155,-0.342 0.151,-0.32C0.151,-0.317 0.15,-0.314 0.15,-0.312C0.15,-0.31 0.149,-0.307 0.149,-0.305C0.159,-0.315 0.169,-0.325 0.18,-0.335C0.191,-0.345 0.202,-0.354 0.213,-0.361C0.225,-0.369 0.236,-0.375 0.249,-0.38C0.261,-0.385 0.272,-0.388 0.283,-0.388C0.298,-0.388 0.31,-0.384 0.32,-0.376C0.329,-0.369 0.337,-0.359 0.342,-0.347C0.347,-0.334 0.35,-0.32 0.352,-0.305C0.353,-0.29 0.353,-0.275 0.353,-0.26C0.352,-0.243 0.349,-0.226 0.344,-0.208C0.339,-0.19 0.333,-0.171 0.324,-0.152C0.316,-0.133 0.306,-0.115 0.295,-0.097C0.284,-0.078 0.272,-0.062 0.26,-0.046C0.262,-0.045 0.264,-0.045 0.265,-0.044C0.265,-0.044 0.266,-0.044 0.266,-0.043C0.266,-0.043 0.266,-0.043 0.267,-0.042C0.268,-0.042 0.27,-0.042 0.273,-0.042C0.288,-0.042 0.304,-0.046 0.319,-0.054C0.335,-0.062 0.35,-0.071 0.365,-0.083C0.38,-0.096 0.395,-0.109 0.409,-0.123C0.423,-0.137 0.435,-0.151 0.447,-0.165C0.458,-0.178 0.468,-0.19 0.476,-0.201C0.483,-0.211 0.489,-0.219 0.493,-0.224C0.498,-0.23 0.503,-0.235 0.508,-0.237C0.512,-0.239 0.516,-0.239 0.519,-0.237C0.521,-0.235 0.522,-0.232 0.522,-0.226C0.522,-0.221 0.521,-0.214 0.517,-0.205C0.514,-0.199 0.508,-0.19 0.5,-0.177C0.492,-0.164 0.481,-0.149 0.469,-0.133C0.456,-0.117 0.442,-0.1 0.426,-0.082C0.41,-0.064 0.394,-0.049 0.376,-0.034C0.358,-0.02 0.34,-0.008 0.322,0.001C0.303,0.011 0.285,0.016 0.268,0.016C0.259,0.016 0.252,0.015 0.247,0.015C0.242,0.014 0.237,0.013 0.234,0.011C0.23,0.01 0.227,0.008 0.224,0.006C0.22,0.005 0.216,0.003 0.212,0.001C0.2,0.01 0.188,0.017 0.176,0.022C0.163,0.027 0.151,0.029 0.14,0.029C0.129,0.029 0.119,0.028 0.111,0.024C0.103,0.02 0.096,0.015 0.091,0.009C0.086,0.003 0.081,-0.004 0.078,-0.011C0.075,-0.019 0.072,-0.026 0.07,-0.033L0.067,-0.019C0.06,0.013 0.051,0.049 0.043,0.09C0.036,0.125 0.027,0.168 0.017,0.218C0.007,0.269 -0.004,0.326 -0.015,0.391C-0.019,0.408 -0.026,0.418 -0.036,0.421C-0.046,0.424 -0.057,0.422 -0.07,0.417ZM0.108,-0.188C0.105,-0.177 0.102,-0.165 0.098,-0.15C0.095,-0.135 0.09,-0.118 0.086,-0.098C0.091,-0.102 0.097,-0.104 0.104,-0.106C0.11,-0.108 0.117,-0.109 0.123,-0.109C0.13,-0.109 0.139,-0.106 0.15,-0.098C0.161,-0.091 0.175,-0.083 0.19,-0.074C0.2,-0.086 0.21,-0.099 0.221,-0.114C0.232,-0.128 0.242,-0.144 0.25,-0.159C0.259,-0.175 0.267,-0.191 0.273,-0.207C0.279,-0.223 0.283,-0.239 0.283,-0.254C0.285,-0.273 0.282,-0.289 0.276,-0.3C0.271,-0.311 0.261,-0.316 0.247,-0.316C0.227,-0.316 0.205,-0.305 0.181,-0.281C0.157,-0.257 0.133,-0.226 0.108,-0.188Z" style="fill:white;fill-rule:nonzero;"/>
            </g>
            <g transform="matrix(86.4995,0,0,86.4995,939.834,391.814)">
                <path d="M0.501,-0.194C0.492,-0.181 0.48,-0.165 0.466,-0.146C0.451,-0.127 0.437,-0.108 0.421,-0.088C0.406,-0.069 0.391,-0.052 0.376,-0.036C0.362,-0.02 0.35,-0.008 0.34,-0.002C0.333,0.002 0.326,0.005 0.317,0.008C0.309,0.01 0.3,0.012 0.292,0.013C0.283,0.013 0.274,0.013 0.267,0.011C0.259,0.01 0.252,0.007 0.246,0.003C0.24,-0.002 0.235,-0.008 0.231,-0.017C0.228,-0.024 0.225,-0.033 0.222,-0.045C0.219,-0.057 0.218,-0.071 0.219,-0.089C0.203,-0.063 0.186,-0.043 0.167,-0.029C0.148,-0.015 0.13,-0.005 0.113,0.002C0.094,0.009 0.074,0.013 0.055,0.015C0.046,0.015 0.036,0.012 0.025,0.005C0.015,-0.001 0.006,-0.011 -0.001,-0.024C-0.008,-0.037 -0.013,-0.055 -0.015,-0.076C-0.017,-0.097 -0.014,-0.122 -0.007,-0.151C0.002,-0.191 0.017,-0.227 0.037,-0.26C0.056,-0.292 0.078,-0.32 0.102,-0.343C0.125,-0.366 0.148,-0.384 0.171,-0.396C0.194,-0.407 0.213,-0.412 0.228,-0.411C0.245,-0.408 0.259,-0.403 0.271,-0.396C0.28,-0.389 0.286,-0.379 0.289,-0.367C0.292,-0.354 0.286,-0.337 0.272,-0.316C0.282,-0.318 0.289,-0.32 0.295,-0.32C0.302,-0.321 0.306,-0.321 0.31,-0.321C0.313,-0.321 0.316,-0.321 0.317,-0.32C0.318,-0.319 0.318,-0.316 0.318,-0.312C0.318,-0.308 0.317,-0.3 0.315,-0.289C0.313,-0.278 0.311,-0.263 0.307,-0.244C0.303,-0.225 0.298,-0.201 0.291,-0.171C0.29,-0.165 0.289,-0.16 0.288,-0.155L0.276,-0.099C0.276,-0.093 0.276,-0.086 0.276,-0.08C0.276,-0.073 0.277,-0.066 0.279,-0.061C0.281,-0.055 0.284,-0.05 0.289,-0.046C0.293,-0.043 0.299,-0.041 0.307,-0.041C0.313,-0.041 0.322,-0.045 0.332,-0.053C0.342,-0.061 0.354,-0.072 0.365,-0.084C0.377,-0.097 0.389,-0.111 0.402,-0.126C0.415,-0.142 0.426,-0.157 0.438,-0.171L0.486,-0.233C0.492,-0.239 0.497,-0.243 0.502,-0.244C0.507,-0.245 0.511,-0.243 0.514,-0.239C0.516,-0.235 0.517,-0.229 0.515,-0.222C0.514,-0.214 0.509,-0.205 0.501,-0.194ZM0.215,-0.151C0.218,-0.164 0.222,-0.18 0.227,-0.197C0.231,-0.215 0.235,-0.232 0.238,-0.248C0.242,-0.264 0.244,-0.278 0.246,-0.289C0.247,-0.299 0.247,-0.304 0.244,-0.304C0.241,-0.303 0.237,-0.302 0.233,-0.301C0.23,-0.299 0.226,-0.299 0.221,-0.298C0.215,-0.297 0.21,-0.296 0.205,-0.295C0.21,-0.305 0.213,-0.314 0.214,-0.321C0.215,-0.328 0.215,-0.333 0.215,-0.337C0.214,-0.341 0.213,-0.345 0.211,-0.348C0.204,-0.354 0.191,-0.349 0.173,-0.333C0.155,-0.318 0.135,-0.29 0.111,-0.249C0.102,-0.232 0.094,-0.214 0.088,-0.195C0.082,-0.176 0.078,-0.158 0.076,-0.141C0.073,-0.124 0.073,-0.109 0.074,-0.096C0.076,-0.083 0.078,-0.075 0.082,-0.071C0.089,-0.064 0.097,-0.061 0.106,-0.061C0.116,-0.061 0.125,-0.064 0.134,-0.069C0.144,-0.074 0.153,-0.08 0.163,-0.088C0.172,-0.096 0.181,-0.104 0.188,-0.112C0.195,-0.121 0.202,-0.129 0.207,-0.136C0.211,-0.143 0.214,-0.148 0.215,-0.151Z" style="fill:white;fill-rule:nonzero;"/>
            </g>
            <g transform="matrix(86.4995,0,0,86.4995,977.509,391.814)">
                <path d="M0.29,0.024C0.275,0.024 0.262,0.022 0.251,0.016C0.241,0.011 0.232,0.003 0.226,-0.006C0.219,-0.015 0.215,-0.026 0.213,-0.038C0.211,-0.05 0.212,-0.063 0.215,-0.076C0.217,-0.085 0.22,-0.097 0.225,-0.113C0.229,-0.128 0.234,-0.145 0.239,-0.163C0.244,-0.181 0.248,-0.198 0.252,-0.216C0.257,-0.234 0.259,-0.25 0.261,-0.265C0.262,-0.28 0.261,-0.292 0.259,-0.301C0.256,-0.311 0.251,-0.315 0.242,-0.315C0.232,-0.315 0.221,-0.312 0.21,-0.305C0.199,-0.298 0.188,-0.289 0.176,-0.277C0.165,-0.266 0.153,-0.252 0.142,-0.237C0.131,-0.222 0.119,-0.206 0.108,-0.189C0.103,-0.167 0.098,-0.148 0.094,-0.131C0.09,-0.115 0.086,-0.1 0.083,-0.086C0.081,-0.073 0.078,-0.061 0.075,-0.051C0.073,-0.041 0.07,-0.032 0.068,-0.022C0.066,-0.016 0.061,-0.01 0.051,-0.003C0.041,0.003 0.031,0.008 0.02,0.012C0.008,0.016 -0.001,0.018 -0.009,0.018C-0.017,0.018 -0.021,0.015 -0.02,0.009C-0.019,0.005 -0.017,-0.004 -0.013,-0.018C-0.01,-0.031 -0.005,-0.047 -0,-0.066C0.004,-0.084 0.009,-0.104 0.015,-0.125C0.02,-0.146 0.025,-0.166 0.029,-0.185C0.033,-0.2 0.036,-0.216 0.04,-0.234C0.043,-0.25 0.047,-0.268 0.052,-0.289C0.057,-0.31 0.063,-0.333 0.069,-0.357C0.074,-0.361 0.079,-0.364 0.083,-0.367C0.088,-0.369 0.093,-0.371 0.099,-0.372C0.104,-0.374 0.109,-0.375 0.115,-0.376C0.12,-0.376 0.126,-0.376 0.131,-0.375C0.135,-0.374 0.14,-0.373 0.145,-0.372C0.15,-0.37 0.154,-0.368 0.158,-0.364C0.156,-0.36 0.154,-0.353 0.151,-0.345C0.149,-0.337 0.146,-0.328 0.144,-0.319C0.141,-0.309 0.138,-0.298 0.134,-0.287C0.142,-0.299 0.152,-0.311 0.163,-0.323C0.173,-0.335 0.185,-0.346 0.198,-0.355C0.21,-0.365 0.224,-0.373 0.238,-0.379C0.253,-0.386 0.267,-0.389 0.282,-0.389C0.295,-0.389 0.306,-0.385 0.315,-0.378C0.325,-0.371 0.333,-0.361 0.338,-0.348C0.344,-0.335 0.347,-0.32 0.348,-0.303C0.349,-0.285 0.347,-0.266 0.341,-0.245L0.33,-0.202C0.327,-0.188 0.323,-0.172 0.318,-0.154C0.313,-0.135 0.307,-0.115 0.3,-0.093C0.296,-0.078 0.294,-0.066 0.295,-0.056C0.296,-0.045 0.303,-0.04 0.314,-0.04C0.326,-0.04 0.341,-0.047 0.359,-0.062C0.377,-0.076 0.395,-0.093 0.413,-0.113C0.431,-0.133 0.449,-0.154 0.465,-0.175C0.481,-0.196 0.493,-0.214 0.502,-0.227C0.508,-0.235 0.513,-0.241 0.519,-0.243C0.524,-0.246 0.528,-0.246 0.531,-0.244C0.534,-0.242 0.535,-0.238 0.535,-0.231C0.535,-0.224 0.533,-0.215 0.527,-0.205C0.523,-0.196 0.516,-0.184 0.506,-0.169C0.497,-0.154 0.486,-0.138 0.473,-0.121C0.46,-0.104 0.446,-0.087 0.431,-0.07C0.416,-0.053 0.4,-0.037 0.384,-0.023C0.368,-0.009 0.351,0.002 0.335,0.011C0.319,0.02 0.304,0.024 0.29,0.024Z" style="fill:white;fill-rule:nonzero;"/>
            </g>
            <g transform="matrix(86.4995,0,0,86.4995,1017.46,391.814)">
                <path d="M0.215,-0.575C0.213,-0.568 0.209,-0.561 0.204,-0.554C0.198,-0.547 0.192,-0.542 0.185,-0.538C0.178,-0.533 0.171,-0.531 0.164,-0.529C0.157,-0.528 0.151,-0.529 0.146,-0.533C0.133,-0.544 0.126,-0.555 0.125,-0.567C0.124,-0.579 0.127,-0.59 0.134,-0.601C0.14,-0.612 0.148,-0.621 0.158,-0.628C0.168,-0.636 0.176,-0.64 0.184,-0.642C0.191,-0.643 0.197,-0.641 0.202,-0.637C0.207,-0.633 0.21,-0.627 0.213,-0.621C0.215,-0.614 0.217,-0.606 0.217,-0.598C0.218,-0.589 0.217,-0.582 0.215,-0.575ZM0.08,-0.367C0.083,-0.371 0.09,-0.374 0.099,-0.377C0.108,-0.38 0.117,-0.382 0.127,-0.383C0.137,-0.385 0.146,-0.386 0.154,-0.386C0.162,-0.387 0.167,-0.386 0.168,-0.386C0.169,-0.385 0.167,-0.378 0.163,-0.365C0.159,-0.352 0.154,-0.337 0.148,-0.319C0.143,-0.302 0.136,-0.284 0.13,-0.265C0.123,-0.247 0.118,-0.231 0.115,-0.22C0.112,-0.208 0.108,-0.195 0.104,-0.18C0.099,-0.166 0.095,-0.151 0.091,-0.137C0.088,-0.123 0.085,-0.11 0.084,-0.098C0.083,-0.085 0.084,-0.076 0.087,-0.069C0.09,-0.062 0.094,-0.056 0.098,-0.053C0.102,-0.05 0.106,-0.049 0.11,-0.049C0.123,-0.049 0.14,-0.056 0.16,-0.07C0.18,-0.085 0.2,-0.102 0.22,-0.122C0.241,-0.141 0.26,-0.162 0.277,-0.182C0.295,-0.203 0.308,-0.219 0.316,-0.231C0.322,-0.238 0.327,-0.242 0.333,-0.244C0.338,-0.246 0.343,-0.246 0.346,-0.243C0.35,-0.241 0.352,-0.236 0.352,-0.23C0.352,-0.225 0.35,-0.218 0.346,-0.21C0.335,-0.192 0.32,-0.17 0.3,-0.145C0.28,-0.12 0.258,-0.096 0.235,-0.073C0.213,-0.05 0.19,-0.03 0.168,-0.014C0.147,0.003 0.129,0.011 0.115,0.012C0.104,0.012 0.093,0.011 0.083,0.006C0.072,0.002 0.062,-0.004 0.053,-0.011C0.044,-0.019 0.037,-0.028 0.031,-0.038C0.025,-0.048 0.022,-0.058 0.021,-0.069C0.02,-0.086 0.02,-0.108 0.021,-0.136C0.023,-0.165 0.027,-0.194 0.032,-0.223C0.037,-0.253 0.044,-0.281 0.052,-0.308C0.06,-0.334 0.07,-0.354 0.08,-0.367Z" style="fill:white;fill-rule:nonzero;"/>
            </g>
            <g transform="matrix(86.4995,0,0,86.4995,1041.2,391.814)">
                <path d="M0.289,-0.155C0.283,-0.131 0.274,-0.107 0.263,-0.086C0.252,-0.064 0.238,-0.046 0.223,-0.03C0.208,-0.015 0.191,-0.002 0.171,0.006C0.152,0.015 0.131,0.02 0.108,0.02C0.082,0.02 0.061,0.014 0.045,0.002C0.03,-0.009 0.019,-0.023 0.011,-0.04C0.004,-0.057 -0.001,-0.076 -0.002,-0.096C-0.004,-0.116 -0.005,-0.135 -0.005,-0.152C-0.005,-0.165 -0.003,-0.178 -0,-0.193C0.002,-0.208 0.007,-0.224 0.012,-0.239C0.017,-0.255 0.024,-0.271 0.032,-0.286C0.04,-0.302 0.049,-0.316 0.061,-0.329C0.064,-0.34 0.07,-0.35 0.079,-0.358C0.087,-0.367 0.096,-0.374 0.107,-0.379C0.118,-0.385 0.129,-0.389 0.142,-0.392C0.154,-0.395 0.166,-0.396 0.178,-0.396C0.18,-0.396 0.181,-0.396 0.183,-0.396C0.185,-0.395 0.187,-0.394 0.188,-0.394C0.197,-0.393 0.208,-0.39 0.22,-0.384C0.233,-0.378 0.245,-0.369 0.257,-0.357C0.269,-0.346 0.28,-0.331 0.288,-0.313C0.297,-0.295 0.301,-0.273 0.301,-0.248C0.301,-0.243 0.3,-0.236 0.3,-0.229C0.299,-0.222 0.299,-0.215 0.298,-0.21C0.313,-0.216 0.328,-0.223 0.345,-0.231C0.361,-0.24 0.377,-0.249 0.392,-0.258C0.407,-0.268 0.422,-0.277 0.435,-0.287C0.448,-0.297 0.458,-0.306 0.466,-0.313C0.472,-0.319 0.478,-0.323 0.482,-0.323C0.487,-0.324 0.49,-0.323 0.492,-0.319C0.494,-0.316 0.494,-0.312 0.493,-0.306C0.492,-0.3 0.488,-0.293 0.482,-0.286C0.479,-0.282 0.471,-0.274 0.458,-0.263C0.444,-0.251 0.428,-0.238 0.41,-0.225C0.392,-0.211 0.372,-0.198 0.351,-0.185C0.329,-0.172 0.309,-0.162 0.289,-0.155ZM0.124,-0.304C0.122,-0.298 0.121,-0.292 0.121,-0.285C0.121,-0.275 0.122,-0.264 0.123,-0.252C0.124,-0.241 0.128,-0.231 0.133,-0.222C0.138,-0.213 0.146,-0.205 0.158,-0.199C0.169,-0.193 0.185,-0.189 0.205,-0.189C0.208,-0.189 0.212,-0.19 0.215,-0.19C0.218,-0.19 0.221,-0.191 0.225,-0.191C0.227,-0.2 0.228,-0.208 0.23,-0.214C0.232,-0.221 0.232,-0.227 0.232,-0.232C0.234,-0.245 0.234,-0.257 0.232,-0.271C0.231,-0.284 0.229,-0.295 0.225,-0.306C0.222,-0.317 0.217,-0.326 0.211,-0.333C0.206,-0.339 0.199,-0.343 0.191,-0.343C0.179,-0.343 0.167,-0.339 0.156,-0.333C0.144,-0.326 0.134,-0.316 0.124,-0.304ZM0.062,-0.132C0.062,-0.12 0.062,-0.109 0.063,-0.097C0.065,-0.086 0.067,-0.076 0.071,-0.067C0.075,-0.058 0.08,-0.051 0.087,-0.045C0.093,-0.04 0.102,-0.037 0.112,-0.037C0.124,-0.037 0.135,-0.04 0.145,-0.045C0.154,-0.051 0.163,-0.058 0.171,-0.067C0.179,-0.076 0.186,-0.086 0.192,-0.097C0.198,-0.109 0.203,-0.12 0.208,-0.133C0.203,-0.132 0.199,-0.132 0.195,-0.131C0.191,-0.131 0.186,-0.131 0.181,-0.131C0.156,-0.131 0.135,-0.138 0.117,-0.153C0.099,-0.167 0.085,-0.186 0.075,-0.209C0.071,-0.195 0.068,-0.182 0.065,-0.169C0.063,-0.156 0.062,-0.144 0.062,-0.132Z" style="fill:white;fill-rule:nonzero;"/>
            </g>
            <g transform="matrix(86.4995,0,0,86.4995,1075.24,391.814)">
                <path d="M0.29,0.024C0.275,0.024 0.262,0.022 0.251,0.016C0.241,0.011 0.232,0.003 0.226,-0.006C0.219,-0.015 0.215,-0.026 0.213,-0.038C0.211,-0.05 0.212,-0.063 0.215,-0.076C0.217,-0.085 0.22,-0.097 0.225,-0.113C0.229,-0.128 0.234,-0.145 0.239,-0.163C0.244,-0.181 0.248,-0.198 0.252,-0.216C0.257,-0.234 0.259,-0.25 0.261,-0.265C0.262,-0.28 0.261,-0.292 0.259,-0.301C0.256,-0.311 0.251,-0.315 0.242,-0.315C0.232,-0.315 0.221,-0.312 0.21,-0.305C0.199,-0.298 0.188,-0.289 0.176,-0.277C0.165,-0.266 0.153,-0.252 0.142,-0.237C0.131,-0.222 0.119,-0.206 0.108,-0.189C0.103,-0.167 0.098,-0.148 0.094,-0.131C0.09,-0.115 0.086,-0.1 0.083,-0.086C0.081,-0.073 0.078,-0.061 0.075,-0.051C0.073,-0.041 0.07,-0.032 0.068,-0.022C0.066,-0.016 0.061,-0.01 0.051,-0.003C0.041,0.003 0.031,0.008 0.02,0.012C0.008,0.016 -0.001,0.018 -0.009,0.018C-0.017,0.018 -0.021,0.015 -0.02,0.009C-0.019,0.005 -0.017,-0.004 -0.013,-0.018C-0.01,-0.031 -0.005,-0.047 -0,-0.066C0.004,-0.084 0.009,-0.104 0.015,-0.125C0.02,-0.146 0.025,-0.166 0.029,-0.185C0.033,-0.2 0.036,-0.216 0.04,-0.234C0.043,-0.25 0.047,-0.268 0.052,-0.289C0.057,-0.31 0.063,-0.333 0.069,-0.357C0.074,-0.361 0.079,-0.364 0.083,-0.367C0.088,-0.369 0.093,-0.371 0.099,-0.372C0.104,-0.374 0.109,-0.375 0.115,-0.376C0.12,-0.376 0.126,-0.376 0.131,-0.375C0.135,-0.374 0.14,-0.373 0.145,-0.372C0.15,-0.37 0.154,-0.368 0.158,-0.364C0.156,-0.36 0.154,-0.353 0.151,-0.345C0.149,-0.337 0.146,-0.328 0.144,-0.319C0.141,-0.309 0.138,-0.298 0.134,-0.287C0.142,-0.299 0.152,-0.311 0.163,-0.323C0.173,-0.335 0.185,-0.346 0.198,-0.355C0.21,-0.365 0.224,-0.373 0.238,-0.379C0.253,-0.386 0.267,-0.389 0.282,-0.389C0.295,-0.389 0.306,-0.385 0.315,-0.378C0.325,-0.371 0.333,-0.361 0.338,-0.348C0.344,-0.335 0.347,-0.32 0.348,-0.303C0.349,-0.285 0.347,-0.266 0.341,-0.245L0.33,-0.202C0.327,-0.188 0.323,-0.172 0.318,-0.154C0.313,-0.135 0.307,-0.115 0.3,-0.093C0.296,-0.078 0.294,-0.066 0.295,-0.056C0.296,-0.045 0.303,-0.04 0.314,-0.04C0.326,-0.04 0.341,-0.047 0.359,-0.062C0.377,-0.076 0.395,-0.093 0.413,-0.113C0.431,-0.133 0.449,-0.154 0.465,-0.175C0.481,-0.196 0.493,-0.214 0.502,-0.227C0.508,-0.235 0.513,-0.241 0.519,-0.243C0.524,-0.246 0.528,-0.246 0.531,-0.244C0.534,-0.242 0.535,-0.238 0.535,-0.231C0.535,-0.224 0.533,-0.215 0.527,-0.205C0.523,-0.196 0.516,-0.184 0.506,-0.169C0.497,-0.154 0.486,-0.138 0.473,-0.121C0.46,-0.104 0.446,-0.087 0.431,-0.07C0.416,-0.053 0.4,-0.037 0.384,-0.023C0.368,-0.009 0.351,0.002 0.335,0.011C0.319,0.02 0.304,0.024 0.29,0.024Z" style="fill:white;fill-rule:nonzero;"/>
            </g>
        </g>
    </g>
</svg>
