<?xml version="1.0" encoding="UTF-8" standalone="no"?>
<!DOCTYPE svg PUBLIC "-//W3C//DTD SVG 1.1//EN" "http://www.w3.org/Graphics/SVG/1.1/DTD/svg11.dtd">
<svg width="100%" height="100%" viewBox="0 0 181 54" version="1.1" xmlns="http://www.w3.org/2000/svg" xmlns:xlink="http://www.w3.org/1999/xlink" xml:space="preserve" xmlns:serif="http://www.serif.com/" style="fill-rule:evenodd;clip-rule:evenodd;stroke-linejoin:round;stroke-miterlimit:2;">
    <path d="M173.667,53.667L7,53.667C3.347,53.654 0.346,50.653 0.333,47L0.333,7C0.346,3.347 3.347,0.346 7,0.333L173.667,0.333C177.319,0.346 180.32,3.348 180.333,7L180.333,47C180.32,50.652 177.319,53.654 173.667,53.667Z" style="fill-rule:nonzero;"/>
    <path d="M173.667,0.333L7,0.333C3.347,0.346 0.346,3.347 0.333,7L0.333,47C0.346,50.653 3.347,53.654 7,53.667L173.667,53.667C177.319,53.654 180.32,50.652 180.333,47L180.333,7C180.32,3.348 177.319,0.346 173.667,0.333ZM173.667,1.4C176.737,1.405 179.262,3.93 179.267,7L179.267,47C179.262,50.07 176.737,52.595 173.667,52.6L7,52.6C3.93,52.595 1.405,50.07 1.4,47L1.4,7C1.405,3.93 3.93,1.405 7,1.4L173.667,1.4Z" style="fill:rgb(166,166,166);fill-rule:nonzero;"/>
    <g transform="matrix(1,0,0,1,2,0.943431)">
        <g>
            <g transform="matrix(1,0,0,1,-51.3025,-0.0693652)">
                <text x="110.616px" y="16.463px" style="font-family:'ArialMT', 'Arial', sans-serif;font-size:12px;fill:white;">USE <tspan x="138.407px 145.738px " y="16.463px 16.463px ">TH</tspan>E</text>
            </g>
            <g transform="matrix(1,0,0,1,2.16921,0.0566905)">
                <text x="56.699px" y="39.828px" style="font-family:'ArialMT', 'Arial', sans-serif;font-size:23px;fill:white;">W<tspan x="77.992px 90.784px 103.575px 108.696px 124.037px " y="39.828px 39.828px 39.828px 39.828px 39.828px ">eb Ap</tspan>p</text>
            </g>
        </g>
    </g>
    <g transform="matrix(0.269002,0,0,0.285768,13.5507,13.5175)">
        <path d="M90.37,26.48L115.85,26.48C117.79,26.48 119.56,27.27 120.82,28.54C122.1,29.82 122.88,31.58 122.88,33.51L122.88,87.33C122.88,89.27 122.09,91.04 120.82,92.3C119.54,93.58 117.78,94.36 115.85,94.36L90.37,94.36C88.43,94.36 86.66,93.57 85.4,92.3C84.12,91.02 83.34,89.26 83.34,87.33L83.34,33.5C83.34,31.56 84.13,29.79 85.4,28.53C86.68,27.25 88.43,26.48 90.37,26.48ZM3.05,0L109.17,0C110.85,0 112.22,1.37 112.22,3.05L112.22,21.49L105.74,21.49L105.74,8.44C105.74,6.96 104.53,5.74 103.04,5.74L9.17,5.74C7.69,5.74 6.47,6.95 6.47,8.44L6.47,60.97C6.47,62.45 7.68,63.67 9.17,63.67L76.7,63.67L76.7,76.4L3.05,76.4C1.37,76.4 0,75.03 0,73.35L0,3.05C0,1.37 1.37,0 3.05,0ZM42.27,80.61L69.94,80.61C70.01,85.4 71.98,89.68 77.33,93.06L34.89,93.06C39.16,89.96 42.29,86.19 42.27,80.61ZM56.11,66.12C58.27,66.12 60.03,67.87 60.03,70.04C60.03,72.2 58.27,73.96 56.11,73.96C53.95,73.96 52.19,72.21 52.19,70.04C52.19,67.88 53.94,66.12 56.11,66.12ZM103.1,85.72C104.69,85.72 105.99,87 105.99,88.61C105.99,90.2 104.71,91.5 103.1,91.5C101.51,91.5 100.21,90.22 100.21,88.61C100.21,87.02 101.49,85.72 103.1,85.72ZM86.3,83.52L119.91,83.52L119.91,37.37L86.3,37.37L86.3,83.52Z" style="fill:white;"/>
    </g>
</svg>
